<?xml version="1.0" encoding="iso-8859-1"?>
<!-- Uploaded to: SVG Repo, www.svgrepo.com, Generator: SVG Repo Mixer Tools -->
<!DOCTYPE svg PUBLIC "-//W3C//DTD SVG 1.1//EN" "http://www.w3.org/Graphics/SVG/1.1/DTD/svg11.dtd">
<svg fill="#fff" version="1.1" id="Capa_1" xmlns="http://www.w3.org/2000/svg" xmlns:xlink="http://www.w3.org/1999/xlink" 
	 width="800px" height="800px" viewBox="0 0 347.876 347.877"
	 xml:space="preserve">
<g>
	<g>
		<path d="M44.298,61.115L157.849,29.08c7.44-2.09,19.801-2.33,27.581-0.511l118.234,27.622c7.746,1.808,7.992,4.99,0.558,7.08
			L190.659,95.307c-7.434,2.096-19.792,2.33-27.541,0.522L44.886,68.207C37.11,66.394,36.864,63.205,44.298,61.115z"/>
		<path d="M166.901,298.491c-0.048,3.818-0.732,7.283-1.924,10.273c-1.18,2.979-2.879,5.495-4.951,7.422
			c-2.072,1.922-4.519,3.268-7.23,3.91c-2.699,0.643-5.656,0.588-8.743-0.271L21.669,285.911c-2.876-0.799-5.621-2.294-8.116-4.324
			c-2.486-2.023-4.74-4.575-6.629-7.493c-1.889-2.907-3.426-6.173-4.482-9.62c-1.057-3.453-1.667-7.098-1.679-10.761L0,101.443
			c-0.024-3.771,0.553-7.242,1.612-10.28c1.051-3.038,2.582-5.662,4.489-7.734s4.179-3.591,6.713-4.438
			c2.54-0.841,5.338-1.009,8.277-0.367l125.116,27.256c3.167,0.685,6.176,2.15,8.899,4.197c2.735,2.054,5.2,4.702,7.257,7.759
			c2.054,3.05,3.714,6.515,4.831,10.196c1.132,3.693,1.723,7.59,1.672,11.529L166.901,298.491z"/>
		<path d="M347.12,253.713c-0.012,3.663-0.612,7.302-1.675,10.761c-1.069,3.453-2.601,6.72-4.486,9.62
			c-1.891,2.918-4.137,5.47-6.629,7.493c-2.492,2.03-5.242,3.525-8.106,4.324l-122.39,33.915c-3.093,0.858-6.047,0.906-8.749,0.271
			c-2.708-0.637-5.158-1.982-7.224-3.91c-2.084-1.927-3.771-4.443-4.96-7.422c-1.183-2.99-1.868-6.455-1.916-10.273l-1.981-158.929
			c-0.048-3.939,0.547-7.836,1.67-11.529c1.129-3.687,2.786-7.146,4.84-10.196c2.053-3.057,4.516-5.705,7.254-7.759
			c2.726-2.047,5.734-3.507,8.893-4.197l125.122-27.256c2.937-0.642,5.734-0.474,8.274,0.367c2.534,0.847,4.81,2.366,6.72,4.438
			c1.909,2.072,3.44,4.696,4.491,7.734c1.057,3.039,1.627,6.51,1.609,10.28L347.12,253.713z"/>
	</g>
</g>
</svg>