<?xml version="1.0" encoding="UTF-8"?>
<svg xmlns="http://www.w3.org/2000/svg" version="1.1" viewBox="0 0 520.1 513">
  <defs>
    <style>
      .cls-1 {
        fill: #0177ff;
      }

      .cls-2 {
        fill: #fafbfc;
      }

      .cls-3 {
        fill: #07f;
      }
    </style>
  </defs>
  <!-- Generator: Adobe Illustrator 28.7.1, SVG Export Plug-In . SVG Version: 1.2.0 Build 142)  -->
  <g>
    <g id="Layer_1">
      <g>
        <path class="cls-2" d="M36.9,428.7c-9,9-17.6,17.7-26.3,26.4-.4-.3-.8-.6-1.2-.9.5-1.1.9-2.4,1.6-3.2,11.5-12.8,23.1-25.3,34.5-38.2,16-18.1,31.7-36.5,47.7-54.7,7.4-8.5,15.1-16.6,22.6-25,14-15.9,27.9-32,42-47.9,7.7-8.7,15.7-17.2,23.4-25.9,4.2-4.8,8.3-9.7,12.3-14.5-9.9-10.4-19.1-20.2-28.5-29.9-13.5-14-27.2-27.9-40.7-42-18-18.7-36-37.5-53.9-56.4-3.9-4.1-7.6-8.6-12.1-13.6,2.4-.4,4-.9,5.6-.9,34.6-.4,69.3-.7,103.9-1.3,4.8,0,8,1.4,11.3,4.7,16,15.7,32.3,31.1,48.7,46.4,10.8,10.1,22,19.9,33,29.8,47.3-38.4,95-77.2,142.6-116,.3.4.7.7,1,1.1-.9,1.1-1.8,2.3-2.8,3.3-37,36.7-74.1,73.4-111.2,110-14.4,14.2-29,28.1-43.4,42.2-40.6,40.1-81,80.2-121.6,120.3-23.4,23.1-46.8,46.1-70.3,69.1-5.9,5.7-12,11.2-18.3,17.1Z"/>
        <path class="cls-3" d="M276.3,321.1s0,0-.6,0c-.7.4-1,.8-1.3,1.3,0,0,0,0-.4-.1-.9.4-1.5.9-2,1.4,0,0,0,0-.3,0-.5.4-.7.8-.9,1.2,0,0,0,0-.3,0-.5.4-.7.8-.9,1.2,0,0,0,0-.3,0-.5.4-.7.8-.8,1.2,0,0,0,0-.4-.1-.9.4-1.5.9-2,1.4,0,0,0,0-.3,0-.5.4-.7.8-.9,1.2,0,0,0,0-.3,0-.5.4-.7.8-.9,1.2,0,0,0,0-.3,0-.5.4-.7.8-.9,1.2,0,0,0,0-.4,0-.7.4-1,.7-1.4,1.1,0,0,0,.1-.5.2-.8.4-1,.8-1.3,1.2,0,0,0,0-.3,0-.5.4-.7.8-.9,1.2,0,0,0,0-.3,0-.5.4-.7.8-.9,1.2,0,0,0,0-.3,0-.5.4-.7.8-.8,1.2,0,0,0,0-.4,0-.5.4-.7.8-.8,1.2,0,0,0,0-.4-.1-.9.4-1.5.9-2,1.4,0,0,0,0-.3,0-.5.4-.7.8-.9,1.2,0,0,0,0-.3,0-.5.4-.7.8-.9,1.2,0,0,0,0-.3,0-.5.4-.7.8-.8,1.2,0,0,0,0-.4-.1-.9.4-1.5.9-2,1.4,0,0,0,0-.3,0-.5.4-.7.8-.9,1.2,0,0,0,0-.3,0-.5.4-.7.8-.9,1.2,0,0,0,0-.3,0-.5.4-.7.8-.8,1.2,0,0,0,0-.4-.1-.9.4-1.5.9-2,1.3,0,0,0,0-.3,0-.5.4-.7.8-.9,1.2,0,0,0,0-.3,0-.5.4-.7.8-.9,1.2,0,0,0,0-.3,0-.5.4-.7.8-.8,1.2,0,0,0,0-.4-.1-.9.4-1.5.9-2,1.3,0,0,0,0-.3,0-.5.4-.7.8-.9,1.2,0,0,0,0-.3,0-.5.4-.7.8-.9,1.2,0,0,0,0-.3,0-.7.4-1,.7-1.3,1,0,0-.1.1-.6.2-.8.4-1,.8-1.3,1.2,0,0,0,0-.3,0-.5.4-.7.8-.9,1.2,0,0,0,0-.3,0-.5.4-.7.8-.9,1.2,0,0,0,0-.3,0-.6.4-1,.7-1.3,1,0,0-.2.1-.6.2-.8.5-1,.8-1.3,1.2,0,0,0,0-.3,0-.5.4-.7.8-.9,1.2,0,0,0,0-.3,0-.5.4-.7.8-.9,1.2,0,0,0,0-.3,0-.5.4-.7.8-.9,1.2,0,0,0,0-.3,0-.5.4-.7.8-.8,1.2,0,0,0,0-.4-.1-.9.4-1.5.9-2,1.4,0,0,0,0-.3,0-.5.4-.7.8-.9,1.2,0,0,0,0-.3,0-.5.4-.7.8-.9,1.2,0,0,0,0-.3,0-.5.4-.7.8-.9,1.2,0,0,0,0-.4,0-.5.4-.7.8-.8,1.2,0,0,0,0-.4,0-.7.4-1,.7-1.4,1.1,0,0,0,.1-.5.1-.8.4-1,.8-1.3,1.3,0,0,0,0-.3,0-.5.4-.7.8-.9,1.2,0,0,0,0-.3,0-.5.4-.7.8-.8,1.2,0,0,0,0-.4,0-.5.4-.7.8-.8,1.2,0,0,0,0-.4-.1-.9.4-1.5.9-2,1.4,0,0,0,0-.3,0-.5.4-.7.8-.9,1.2,0,0,0,0-.3,0-.7.4-1,.7-1.3,1,0,0-.1.1-.6.2-.8.4-1,.8-1.3,1.2,0,0,0,0-.3,0-.5.4-.7.8-.9,1.2,0,0,0,0-.3,0-.5.4-.7.8-.9,1.2,0,0,0,0-.3,0-.7.4-1,.7-1.3,1,0,0-.1.1-.6.2-.8.4-1,.8-1.3,1.2,0,0,0,0-.3,0-.5.4-.7.8-.9,1.2,0,0,0,0-.3,0-.5.4-.7.8-.9,1.2,0,0,0,0-.3,0-.5.4-.7.8-.9,1.2,0,0,0,0-.4,0-.7.4-1,.7-1.3,1,0,0-.1.1-.6.2-.8.4-1,.8-1.3,1.2,0,0,0,0-.3,0-.5.4-.7.8-.9,1.2,0,0,0,0-.3,0-.5.4-.7.8-.9,1.2,0,0,0,0-.3,0-.5.4-.7.8-.9,1.2,0,0,0,0-.4-.1-.9.4-1.5.9-2,1.4,0,0,0,0-.3,0-.5.4-.7.8-.9,1.2,0,0,0,0-.3,0-.5.4-.7.8-.9,1.2,0,0,0,0-.3,0-.5.4-.7.8-.9,1.2,0,0,0,0-.3,0-.5.4-.7.8-.8,1.2,0,0,0,0-.4-.1-.9.4-1.5.9-2,1.4,0,0,0,0-.3,0-.5.4-.7.8-.9,1.2,0,0,0,0-.3,0-.5.4-.7.8-.9,1.2,0,0,0,0-.4,0-.5.4-.7.8-.8,1.2,0,0,0,0-.4,0-.7.4-1,.7-1.4,1.1,0,0,0,.1-.5.1-.8.4-1,.8-1.3,1.3,0,0,0,0-.3,0-.5.4-.7.8-.9,1.2,0,0,0,0-.3,0-.5.4-.7.8-.9,1.2,0,0,0,0-.5-.1-1.6-.4-2.7-.8-3.6-1.5.3-.9.3-1.5.4-2.1,0,0,0,0,.4,0,.5-.4.7-.8.8-1.2,0,0,0,0,.4,0,.5-.4.7-.8.8-1.2,0,0,0,0,.4,0,.5-.4.7-.8.8-1.2,0,0,0,0,.4,0,.5-.4.7-.8.8-1.2,0,0,0,0,.4,0,.5-.4.7-.8.8-1.2,0,0,0,0,.4,0,.5-.4.7-.8.8-1.2,0,0,0,0,.4,0,.5-.4.7-.8.8-1.2,0,0,0,0,.4,0,.7-.4,1-.7,1.4-1.1.2-.2.4-.4,1.1-.8,1.3-.7,2.1-1.2,3.1-2.1.6-.9.9-1.6,1.3-2.2,0,0,0,0,.3,0,.5-.5.7-.8.9-1.2,0,0,0,0,.3,0,.5-.5.7-.8.9-1.2,0,0,0,0,.3,0,.5-.9.7-1.6.8-2.3,0,0,0,0,.4,0,.5-.4.7-.8.8-1.2,0,0,0,0,.4,0,.5-.4.7-.8.8-1.2,0,0,0,0,.4,0,.5-.4.7-.8.8-1.2,0,0,0,0,.4,0,.5-.4.7-.8.8-1.2,0,0,0,0,.4,0,.5-.4.7-.8.8-1.2,0,0,0,0,.4.1.9-.4,1.5-.9,2-1.4,0,0,0,0,.3,0,.5-.4.7-.8.9-1.2,0,0,0,0,.3,0,.5-.4.7-.8.9-1.2,0,0,0,0,.3,0,.5-.4.7-.8.9-1.2,0,0,0,0,.3,0,.5-.4.7-.8.9-1.2,0,0,0,0,.3,0,.5-.4.7-.8.9-1.2,0,0,0,0,.3,0,.5-.4.7-.8.9-1.2,0,0,0,0,.3,0,.5-.4.7-.8.9-1.2,0,0,0,0,.3,0,.5-.4.7-.8.9-1.2,0,0,0,0,.3,0,.5-.4.7-.8.9-1.2,0,0,0,0,.3,0,.5-.4.7-.8.9-1.2,0,0,0,0,.3,0,.5-.4.7-.8.9-1.2,0,0,0,0,.3,0,.5-.4.7-.8.9-1.2,0,0,0,0,.3,0,.5-.4.7-.8.9-1.2,0,0,0,0,.3,0,.5-.4.7-.8.9-1.2,0,0,0,0,.3,0,.5-.4.7-.8.9-1.2,0,0,0,0,.3,0,.5-.4.7-.8.9-1.2,0,0,0,0,.3,0,.5-.4.7-.8.9-1.2,0,0,0,0,.3,0,.5-.4.7-.8.9-1.2,0,0,0,0,.3,0,.5-.4.7-.8.9-1.2,0,0,0,0,.3,0,.5-.4.7-.8.9-1.2,0,0,0,0,.3,0,.5-.4.7-.8.9-1.2,0,0,0,0,.3,0,.5-.4.7-.8.9-1.2,0,0,0,0,.3,0,.5-.4.7-.8.9-1.2,0,0,0,0,.3,0,.5-.4.7-.8.9-1.2,0,0,0,0,.3,0,.5-.4.7-.8.9-1.2,0,0,0,0,.3,0,.5-.4.7-.8.9-1.2,0,0,0,0,.3,0,.5-.4.7-.8.9-1.2,0,0,0,0,.3,0,.5-.4.7-.8.9-1.2,0,0,0,0,.3,0,.5-.4.7-.8.9-1.2,0,0,0,0,.3,0,.5-.4.7-.8.9-1.2,0,0,0,0,.3,0,.5-.4.7-.8.9-1.2,0,0,0,0,.3,0,.5-.4.7-.8.9-1.2,0,0,0,0,.3,0,.5-.4.7-.8.9-1.2,0,0,0,0,.3,0,.5-.4.7-.8.9-1.2,0,0,0,0,.3,0,.5-.4.7-.8.9-1.2,0,0,0,0,.3,0,.5-.4.7-.8.8-1.2,0,0,0,0,.3,0,.5-.4.7-.8.8-1.2,0,0,0,0,.3,0,.5-.4.7-.8.8-1.2,0,0,0,0,.3,0,.5-.4.7-.8.8-1.2,0,0,0,0,.3,0,.5-.4.7-.8.8-1.2,0,0,0,0,.3,0,.5-.4.7-.8.8-1.2,0,0,0,0,.4,0,.5-.4.7-.8.8-1.2,0,0,0,0,.4,0,.5-.4.7-.8.8-1.2,0,0,0,0,.4,0,.5-.4.7-.8.8-1.2,0,0,0,0,.4,0,.5-.4.7-.8.8-1.2,0,0,0,0,.4,0,.5-.4.7-.8.8-1.2,0,0,0,0,.4,0,.5-.4.7-.8.8-1.2,0,0,0,0,.4,0,.7-.4,1-.7,1.4-1.1.2-.2.3-.4,1-.9.6-.8.7-1.2.9-1.7,0,0,0,0,.4,0,.5-.4.7-.8.8-1.2,0,0,0,0,.4,0,.5-.4.7-.8.8-1.2,0,0,0,0,.4,0,.5-.4.7-.8.8-1.2,0,0,0,0,.4,0,.5-.4.7-.8.8-1.2,0,0,0,0,.4.1.9-.4,1.5-.9,2-1.4,0,0,0,0,.3,0,.5-.4.7-.8.9-1.2,0,0,0,0,.3,0,.5-.4.7-.8.9-1.2,0,0,0,0,.3,0,.5-.4.7-.8.9-1.2,0,0,0,0,.3,0,.9-.9,1.5-1.6,2.1-2.4,0,0,0,0,.3,0,.5-.4.7-.8.9-1.2,0,0,0,0,.3,0,.5-.4.7-.8.9-1.2,0,0,0,0,.3,0,.5-.4.7-.8.9-1.2,0,0,0,0,.3,0,.5-.4.7-.8.9-1.2,0,0,0,0,.3,0,.5-.4.7-.8.9-1.2,0,0,0,0,.3,0,.5-.4.7-.8.9-1.2,0,0,0,0,.3,0,.5-.4.7-.8.9-1.2,0,0,0,0,.3,0,.5-.4.7-.8.9-1.2,0,0,0,0,.3,0,.5-.4.7-.8.9-1.2,0,0,0,0,.3,0,.5-.4.7-.8.9-1.2,0,0,0,0,.3,0,.5-.4.7-.8.9-1.2,0,0,0,0,.3,0,.5-.4.7-.8.9-1.2,0,0,0,0,.3,0,.5-.4.7-.8.9-1.2,0,0,0,0,.3,0,.5-.4.7-.8.9-1.2,0,0,0,0,.3,0,.5-.4.7-.8.9-1.2,0,0,0,0,.3,0,.5-.4.7-.8.9-1.2,0,0,0,0,.3,0,.5-.4.7-.8.9-1.2,0,0,0,0,.3,0,.5-.4.7-.8.9-1.2,0,0,0,0,.3,0,.5-.4.7-.8.9-1.2,0,0,0,0,.3,0,.5-.4.7-.8.9-1.2,0,0,0,0,.3,0,.5-.4.7-.8.9-1.2,0,0,0,0,.3,0,.5-.4.7-.8.9-1.2,0,0,0,0,.3,0,.5-.4.7-.8.9-1.2,0,0,0,0,.3,0,.5-.4.7-.8.9-1.2,0,0,0,0,.3,0,.5-.4.7-.8.9-1.2,0,0,0,0,.3,0,.5-.4.7-.8.9-1.2,0,0,0,0,.3,0,.5-.4.7-.8.9-1.2,0,0,0,0,.3,0,.5-.4.7-.8.9-1.2,0,0,0,0,.3,0,.5-.4.7-.8.9-1.2,0,0,0,0,.3,0,.5-.4.7-.8.9-1.2,0,0,0,0,.3,0,.5-.4.7-.8.9-1.2,0,0,0,0,.3,0,.5-.4.7-.8.9-1.2,0,0,0,0,.3,0,.5-.4.7-.8.9-1.2,0,0,0,0,.3,0,.5-.4.7-.8.9-1.2,0,0,0,0,.3,0,.5-.4.7-.8.9-1.2,0,0,0,0,.3,0,.5-.4.7-.8.9-1.2,0,0,0,0,.3,0,.5-.4.7-.8.9-1.2,0,0,0,0,.3,0,.5-.4.7-.8.9-1.2,0,0,0,0,.3,0,.5-.4.7-.8.9-1.2,0,0,0,0,.3,0,.5-.4.7-.8.8-1.2,0,0,0,0,.3,0,.5-.4.7-.8.8-1.2,0,0,0,0,.3,0,.5-.4.7-.8.8-1.2,0,0,0,0,.4,0,.5-.4.7-.8.8-1.2,0,0,0,0,.4,0,.5-.4.7-.8.8-1.2,0,0,0,0,.4,0,.5-.4.7-.8.8-1.2,0,0,0,0,.4,0,.5-.4.7-.8.8-1.2,0,0,0,0,.4,0,.5-.4.7-.8.8-1.2,0,0,0,0,.4,0,.5-.4.7-.8.8-1.2,0,0,0,0,.4,0,.5-.4.7-.8.8-1.2,0,0,0,0,.4,0,.5-.4.7-.8.8-1.2,0,0,0,0,.4,0,.5-.4.7-.8.8-1.2,0,0,0,0,.4,0,.5-.4.7-.8.8-1.2,0,0,0,0,.4,0,.5-.4.7-.8.8-1.2,0,0,0,0,.4,0,.5-.4.7-.8.8-1.2,0,0,0,0,.4,0,.5-.4.7-.8.8-1.2,0,0,0,0,.4,0,.5-.4.7-.8.8-1.2,0,0,0,0,.4,0,.5-.4.7-.8.8-1.2,0,0,0,0,.4,0,.5-.4.7-.8.8-1.2,0,0,0,0,.4.1.9-.4,1.5-.9,2-1.4,0,0,0,0,.3,0,.5-.4.7-.8.9-1.2,0,0,0,0,.3,0,.5-.4.7-.8.9-1.2,0,0,0,0,.3,0,.5-.4.7-.8.9-1.2,0,0,0,0,.3,0,.5-.4.7-.8.9-1.2,0,0,0,0,.3,0,.5-.4.7-.8.9-1.2,0,0,0,0,.3,0,.5-.4.7-.8.9-1.2,0,0,0,0,.3,0,.5-.4.7-.8.9-1.2,0,0,0,0,.3,0,.5-.4.7-.8.9-1.2,0,0,0,0,.3,0,.5-.4.7-.8.9-1.2,0,0,0,0,.3,0,.5-.4.7-.8.9-1.2,0,0,0,0,.3,0,.5-.4.7-.8.9-1.2,0,0,0,0,.3,0,.5-.4.7-.8.9-1.2,0,0,0,0,.3,0,.5-.4.7-.8.9-1.2,0,0,0,0,.3,0,.5-.4.7-.8.9-1.2,0,0,0,0,.3,0,.5-.4.7-.8.9-1.2,0,0,0,0,.3,0,.5-.4.7-.8.9-1.2,0,0,0,0,.3,0,.5-.4.7-.8.9-1.2,0,0,0,0,.3,0,.5-.4.7-.8.9-1.2,0,0,0,0,.3,0,.5-.4.7-.8.9-1.2,0,0,0,0,.3,0,.5-.4.7-.8.9-1.2,0,0,0,0,.3,0,.5-.4.7-.8.9-1.2,0,0,0,0,.3,0,.5-.4.7-.8.9-1.2,0,0,0,0,.3,0,.5-.4.7-.8.9-1.2,0,0,0,0,.3,0,.5-.4.7-.8.9-1.2,0,0,0,0,.3,0,.5-.4.7-.8.9-1.2,0,0,0,0,.3,0,.5-.4.7-.8.9-1.2,0,0,0,0,.3,0,.5-.4.7-.8.9-1.2,0,0,0,0,.3,0,.5-.4.7-.8.9-1.2,0,0,0,0,.3,0,.5-.4.7-.8.9-1.2,0,0,0,0,.3,0,.5-.4.7-.8.9-1.2,0,0,0,0,.3,0,.5-.4.7-.8.9-1.2,0,0,0,0,.3,0,.5-.4.7-.8.9-1.2,0,0,0,0,.3,0,.5-.4.7-.8.9-1.2,0,0,0,0,.3,0,.5-.4.7-.8.9-1.2,0,0,0,0,.3,0,.5-.4.7-.8.9-1.2,0,0,0,0,.3,0,.5-.4.7-.8.9-1.2,0,0,0,0,.3,0,.5-.4.7-.8.9-1.2,0,0,0,0,.3,0,.5-.4.7-.8.9-1.2,0,0,0,0,.3,0,.5-.4.7-.8.9-1.2,0,0,0,0,.3,0,.5-.4.7-.8.9-1.2,0,0,0,0,.3,0,.5-.4.7-.8.8-1.2,0,0,0,0,.3,0,.5-.4.7-.8.8-1.2,0,0,0,0,.3,0,.5-.4.7-.8.8-1.2,0,0,0,0,.3,0,.5-.4.7-.8.8-1.2,0,0,0,0,.3,0,.5-.4.7-.8.8-1.2,0,0,0,0,.3,0,.5-.4.7-.8.8-1.2,0,0,0,0,.4,0,.5-.4.7-.8.8-1.2,0,0,0,0,.4,0,.5-.4.7-.8.8-1.2,0,0,0,0,.4,0,.5-.4.7-.8.8-1.2,0,0,0,0,.4,0,.5-.4.7-.8.8-1.2,0,0,0,0,.4,0,.5-.4.7-.8.8-1.2,0,0,0,0,.4,0,.5-.4.7-.8.8-1.2,0,0,0,0,.4,0,.5-.4.7-.8.8-1.2,0,0,0,0,.4,0,.5-.4.7-.8.8-1.2,0,0,0,0,.4,0,.5-.4.7-.8.8-1.2,0,0,0,0,.4,0,.5-.4.7-.8.8-1.2,0,0,0,0,.4,0,.5-.4.7-.8.8-1.2,0,0,0,0,.4,0,.5-.4.7-.8.8-1.2,0,0,0,0,.4,0,.5-.4.7-.8.8-1.2,0,0,0,0,.4,0,.5-.4.7-.8.8-1.2,0,0,0,0,.4,0,.7-.4,1-.7,1.4-1.1,0,0,0-.1.6-.2.8-.6,1.1-1.1,1.4-1.6,0,0,0-.1.3-.4.5-.7.7-1.2.8-1.6,0,0,0,0,.4,0,.7-.4,1-.7,1.4-1.1.2-.2.3-.4,1-.9.8-.7,1.1-1.1,1.4-1.5,0,0,0-.1.5-.2.7-.4,1-.8,1.3-1.2,0,0,0,0,.3,0,.5-.4.7-.8.9-1.2,0,0,0,0,.3,0,.5-.4.7-.8.9-1.2,0,0,0,0,.3,0,.5-.4.7-.8.9-1.2,0,0,0,0,.3,0,.5-.4.7-.8.9-1.2,0,0,0,0,.3,0,.5-.4.7-.8.9-1.2,0,0,0,0,.3,0,.5-.4.7-.8.9-1.2,0,0,0,0,.3,0,.5-.4.7-.8.9-1.2,0,0,0,0,.3,0,.5-.4.7-.8.9-1.2,0,0,0,0,.3,0,.5-.4.7-.8.9-1.2,0,0,0,0,.3,0,.5-.4.7-.8.9-1.2,0,0,0,0,.3,0,.5-.4.7-.8.9-1.2,0,0,0,0,.3,0,.5-.4.7-.8.9-1.2,0,0,0,0,.3,0,.5-.4.7-.8.9-1.2,0,0,0,0,.3,0,.5-.4.7-.8.9-1.2,0,0,0,0,.3,0,.5-.4.7-.8.9-1.2,0,0,0,0,.3,0,.5-.4.7-.8.9-1.2,0,0,0,0,.3,0,.5-.4.7-.8.9-1.2,0,0,0,0,.3,0,.5-.4.7-.8.9-1.2,0,0,0,0,.3,0,.5-.4.7-.8.9-1.2,0,0,0,0,.3,0,.5-.4.7-.8.9-1.2,0,0,0,0,.3,0,.5-.4.7-.8.9-1.2,0,0,0,0,.3,0,.5-.4.7-.8.9-1.2,0,0,0,0,.3,0,.5-.4.7-.8.9-1.2,0,0,0,0,.3,0,.5-.4.7-.8.9-1.2,0,0,0,0,.3,0,.5-.4.7-.8.9-1.2,0,0,0,0,.3,0,.5-.4.7-.8.9-1.2,0,0,0,0,.3,0,.5-.4.7-.8.9-1.2,0,0,0,0,.3,0,.5-.4.7-.8.9-1.2,0,0,0,0,.3,0,.5-.4.7-.8.9-1.2,0,0,0,0,.3,0,.5-.4.7-.8.9-1.2,0,0,0,0,.3,0,.5-.4.7-.8.9-1.2,0,0,0,0,.3,0,.5-.4.7-.8.9-1.2,0,0,0,0,.3,0,.5-.4.7-.8.9-1.2,0,0,0,0,.3,0,.5-.4.7-.8.9-1.2,0,0,0,0,.3,0,.5-.4.7-.8.9-1.2,0,0,0,0,.3,0,.5-.4.7-.8.9-1.2,0,0,0,0,.3,0,.5-.4.7-.8.8-1.2,0,0,0,0,.3,0,.5-.4.7-.8.8-1.2,0,0,0,0,.4,0,.5-.4.7-.8.8-1.2,0,0,0,0,.4,0,.5-.4.7-.8.8-1.2,0,0,0,0,.4,0,.5-.4.7-.8.8-1.2,0,0,0,0,.4,0,.5-.4.7-.8.8-1.2,0,0,0,0,.4,0,.5-.4.7-.8.8-1.2,0,0,0,0,.4,0,.5-.4.7-.8.8-1.2,0,0,0,0,.4,0,.5-.4.7-.8.8-1.2,0,0,0,0,.4,0,.5-.4.7-.8.8-1.2,0,0,0,0,.4,0,.5-.4.7-.8.8-1.2,0,0,0,0,.4,0,.5-.4.7-.8.8-1.2,0,0,0,0,.4,0,.5-.4.7-.8.8-1.2,0,0,0,0,.4,0,.5-.4.7-.8.8-1.2,0,0,0,0,.4,0,.7-.4,1-.7,1.4-1.1.2-.2.3-.4,1-.9.6-.8.7-1.2.9-1.7,0,0,0,0,.4,0,.7-.4,1-.7,1.4-1.1,0,0,0-.1.6-.2.8-.6,1.1-1.1,1.4-1.6,0,0,0-.1.3-.4.5-.7.7-1.2.8-1.6,0,0,0,0,.4,0,.5-.4.7-.8.8-1.2,0,0,0,0,.4.1.9-.4,1.5-.9,2-1.4,0,0,0,0,.3,0,.5-.4.7-.8.9-1.2,0,0,0,0,.3,0,.5-.4.7-.8.9-1.2,0,0,0,0,.3,0,.5-.9.7-1.6.8-2.3,0,0,0,0,.4.1.9-.4,1.5-.9,2-1.4,0,0,0,0,.4.1,1.4,1.2,2.3,2.4,3.2,3.6,0,0,0,0-.4,0-.5.4-.7.8-.8,1.2,0,0,0,0-.3,0-.5.4-.7.8-.9,1.2,0,0,0,0-.3,0-.5.4-.7.8-.9,1.2,0,0,0,0-.3,0-.5.4-.7.8-.9,1.2,0,0,0,0-.3,0-.5.4-.7.8-.9,1.2,0,0,0,0-.4,0-.5.9-.7,1.6-.8,2.3,0,0,0,0-.4,0-.5.4-.7.8-.8,1.2,0,0,0,0-.4,0-.5.4-.7.8-.8,1.2,0,0,0,0-.4,0-.5.4-.7.8-.8,1.2,0,0,0,0-.3,0-.5.4-.7.8-.9,1.2,0,0,0,0-.3,0-.5.4-.7.8-.9,1.2,0,0,0,0-.3,0-.5.4-.7.8-.9,1.2,0,0,0,0-.4,0-.5.6-.7,1.1-.9,1.5,0,0,0,.1-.3.4-.5.7-.7,1.2-.8,1.6,0,0,0,0-.4,0-.5.4-.7.8-.8,1.2,0,0,0,0-.4,0-.5.4-.7.8-.8,1.2,0,0,0,0-.4,0-.5.4-.7.8-.8,1.2,0,0,0,0-.3,0-.5.4-.7.8-.9,1.2,0,0,0,0-.3,0-.5.4-.7.8-.9,1.2,0,0,0,0-.3,0-.5.4-.7.8-.9,1.2,0,0,0,0-.3,0-.5.4-.7.8-.9,1.2,0,0,0,0-.3,0-.5.5-.7.8-.9,1.2,0,0,0,0-.3,0-.5.5-.7.8-.9,1.2,0,0,0,0-.3,0-.5.6-.7,1-1,1.4,0,0,0,.2-.3.5-.5.7-.7,1.1-.8,1.6,0,0,0,0-.3,0-.5.4-.7.8-.9,1.2,0,0,0,0-.3,0-.5.4-.7.8-.9,1.2,0,0,0,0-.4,0-.5.6-.7,1.1-.9,1.6,0,0,0,.1-.3.4-.5.7-.7,1.2-.8,1.6,0,0,0,0-.4,0-.5.4-.7.8-.8,1.2,0,0,0,0-.4,0-.5.4-.7.8-.8,1.2,0,0,0,0-.3,0-.5.4-.7.8-.8,1.2,0,0,0,0-.3,0-.5.4-.7.8-.9,1.2,0,0,0,0-.3,0-.5.4-.7.8-.9,1.2,0,0,0,0-.3,0-.5.4-.7.8-.9,1.2,0,0,0,0-.4,0-.5.9-.7,1.6-.8,2.3,0,0,0,0-.4,0-.5.4-.7.8-.8,1.2,0,0,0,0-.4,0-.5.4-.7.8-.8,1.2,0,0,0,0-.4,0-.5.4-.7.8-.8,1.2,0,0,0,0-.3,0-.5.4-.7.8-.9,1.2,0,0,0,0-.3,0-.5.4-.7.8-.9,1.2,0,0,0,0-.3,0-.5.4-.7.8-.9,1.2,0,0,0,0-.4,0-.5.6-.7,1.1-.9,1.6,0,0,0,.1-.3.4-.5.7-.6,1.2-.8,1.6,0,0,0,0-.4,0-.5.4-.7.8-.8,1.2,0,0,0,0-.4,0-.5.4-.7.8-.8,1.2,0,0,0,0-.3,0-.5.4-.7.8-.8,1.2,0,0,0,0-.3,0-.5.4-.7.8-.9,1.2,0,0,0,0-.3,0-.5.4-.7.8-.9,1.2,0,0,0,0-.3,0-.5.4-.7.8-.9,1.2,0,0,0,0-.3,0-.5.4-.7.8-.9,1.2,0,0,0,0-.3,0-.5.9-.7,1.6-.8,2.3,0,0,0,0-.4,0-.5.4-.7.8-.8,1.2,0,0,0,0-.4,0-.5.4-.7.8-.8,1.2,0,0,0,0-.3,0-.5.4-.7.8-.9,1.2,0,0,0,0-.3,0-.5.4-.7.8-.9,1.2,0,0,0,0-.3,0-.5.4-.7.8-.9,1.2,0,0,0,0-.4,0-.5.9-.7,1.6-.8,2.3,0,0,0,0-.4,0-.5.4-.7.8-.8,1.2,0,0,0,0-.4,0-.5.4-.7.8-.8,1.2,0,0,0,0-.4,0-.5.4-.7.8-.8,1.2,0,0,0,0-.3,0-.5.4-.7.8-.8,1.2,0,0,0,0-.3,0-.5.4-.7.8-.9,1.2,0,0,0,0-.3,0-.5.4-.7.8-.9,1.2,0,0,0,0-.3,0-.5.4-.7.8-.9,1.2,0,0,0,0-.4,0-.5.9-.7,1.6-.8,2.3,0,0,0,0-.4,0-.5.4-.7.8-.8,1.2,0,0,0,0-.4,0-.5.4-.7.8-.8,1.2,0,0,0,0-.4,0-.5.4-.7.8-.8,1.2,0,0,0,0-.3,0-.5.4-.7.8-.8,1.2,0,0,0,0-.3,0-.5.4-.7.8-.9,1.2,0,0,0,0-.3,0-.5.4-.7.8-.9,1.2,0,0,0,0-.3,0-.5.4-.7.8-.9,1.2,0,0,0,0-.4,0-.5.9-.7,1.6-.8,2.3,0,0,0,0-.4-.1-.9.4-1.5.9-2,1.4,0,0,0-.1-.3,0-.5.9-.7,1.6-.9,2.3,0,0,0,0-.4,0-.5.4-.7.8-.8,1.2,0,0,0,0-.4-.1-.9.4-1.5.8-2.1,1.6,0,.5,0,.7,0,1,0,0,0,0-.3,0-.5.4-.7.8-.9,1.2,0,0,0,0-.3,0-.5.6-.7,1.1-.9,1.5,0,0,0,.1-.3.4-.5.7-.7,1.2-.8,1.6,0,0,0,0-.4,0-.5.4-.7.8-.8,1.2,0,0,0,0-.3,0-.5.4-.7.8-.9,1.2,0,0,0,0-.3,0-.5.4-.7.8-.9,1.2,0,0,0,0-.3,0-.5.4-.7.8-.9,1.2,0,0,0,0-.4,0-.5.9-.7,1.6-.8,2.3,0,0,0,0-.4,0-.5.4-.7.8-.8,1.2,0,0,0,0-.4,0-.5.4-.7.8-.8,1.2,0,0,0,0-.4,0-.5.4-.7.8-.8,1.2,0,0,0,0-.3,0-.5.4-.7.8-.8,1.2,0,0,0,0-.3,0-.5.4-.7.8-.9,1.2,0,0,0,0-.3,0-.5.4-.7.8-.9,1.2,0,0,0,0-.3,0-.5.4-.7.8-.9,1.2,0,0,0,0-.3,0-.5.4-.7.8-.9,1.2,0,0,0,0-.3,0-.5.9-.7,1.6-.8,2.3,0,0,0,0-.4,0-.5.4-.7.8-.8,1.2,0,0,0,0-.4,0-.5.4-.7.8-.8,1.2,0,0,0,0-.3,0-.5.4-.7.8-.9,1.2,0,0,0,0-.3,0-.5.4-.7.8-.9,1.2,0,0,0,0-.3,0-.5.4-.7.8-.9,1.2,0,0,0,0-.3,0-.5.4-.7.8-.9,1.2,0,0,0,0-.3,0-.5.4-.7.8-.9,1.2,0,0,0,0-.3,0-.5.6-.7,1.1-.9,1.5,0,0,0,.1-.3.4-.5.7-.7,1.2-.8,1.6,0,0,0,0-.4,0-.5.4-.7.8-.9,1.2,0,0,0,0-.3,0-.5.4-.7.8-.9,1.2,0,0,0,0-.3,0-.5.4-.7.8-.9,1.2,0,0,0,0-.3,0-.5.4-.7.8-.9,1.2,0,0,0,0-.3,0-.5.4-.7.8-.9,1.2,0,0,0,0-.3,0-.5.9-.7,1.6-.8,2.3,0,0,0,0-.4,0-.5.4-.7.8-.8,1.2,0,0,0,0-.4,0-.5.4-.7.8-.8,1.2,0,0,0,0-.3,0-.5.4-.7.8-.9,1.2,0,0,0,0-.3,0-.5.4-.7.8-.9,1.2,0,0,0,0-.3,0-.5.4-.7.8-.9,1.2,0,0,0,0-.3,0-.5.4-.7.8-.9,1.2,0,0,0,0-.4,0-.5.9-.7,1.6-.8,2.3,0,0,0,0-.4,0-.5.4-.7.8-.8,1.2,0,0,0,0-.4,0-.5.4-.7.8-.8,1.2,0,0,0,0-.4,0-.5.4-.7.8-.8,1.2,0,0,0,0-.3,0-.5.4-.7.8-.9,1.2,0,0,0,0-.3,0-.5.4-.7.8-.9,1.2,0,0,0,0-.3,0,0,.8.2,1.6.4,2.3,0,0,0,0,0,.3.4.5.8.7,1.2.8,0,0,0,0,0,.4.4.5.8.7,1.2.8,0,0,0,0,0,.4.4.5.8.7,1.2.8,0,0,0,0,0,.4.4.5.8.7,1.2.8,0,0,0,0,0,.4.4.5.8.7,1.2.8,0,0,0,0-.1.4.4.9.9,1.5,1.4,2,0,0,0,0,0,.3.4.5.8.7,1.2.9,0,0,0,0,0,.3.4.5.8.7,1.2.9,0,0,0,0,0,.3.4.5.8.7,1.2.9,0,0,0,0,0,.3.4.5.8.7,1.2.9,0,0,0,0,0,.3.4.5.8.7,1.2.9,0,0,0,0,0,.3.4.5.8.7,1.2.9,0,0,0,0,0,.3.4.5.8.7,1.2.9,0,0,0,0,0,.3.4.5.8.7,1.2.9,0,0,0,0,0,.3.4.5.8.7,1.2.9,0,0,0,0,0,.3.4.5.8.7,1.2.9,0,0,0,0,0,.3.4.5.8.7,1.2.9,0,0,0,0,0,.3.4.5.8.7,1.2.9,0,0,0,0,0,.3.4.5.8.7,1.2.9,0,0,0,0,0,.3.4.5.8.7,1.2.9,0,0,0,0,0,.3.4.5.8.7,1.2.8,0,0,0,0,0,.3.4.5.8.7,1.2.8,0,0,0,0,0,.4.4.5.8.7,1.2.8,0,0,0,0,0,.4.4.5.8.7,1.2.8,0,0,0,0,0,.4.4.5.8.7,1.2.8,0,0,0,0,0,.4.4.5.8.7,1.2.8,0,0,0,0,0,.4.4.5.8.7,1.2.8,0,0,0,0,0,.4.4.5.8.7,1.2.8,0,0,0,0-.1.4.4.9.9,1.5,1.4,2,0,0,0,0,0,.3.9.9,1.6,1.5,2.4,2.1,0,0,0,0,0,.3.4.5.8.7,1.2.9,0,0,0,0,0,.3.4.5.8.7,1.2.9,0,0,0,0,0,.3.4.5.8.7,1.2.9,0,0,0,0,0,.3.4.5.8.7,1.2.9,0,0,0,0,0,.3.4.5.8.7,1.2.9,0,0,0,0,0,.3.4.5.8.7,1.2.9,0,0,0,0,0,.3.4.5.8.7,1.2.9,0,0,0,0,0,.3.4.5.8.7,1.2.9,0,0,0,0,0,.3.4.5.8.7,1.2.9,0,0,0,0,0,.3.4.5.8.7,1.2.9,0,0,0,0,0,.3.4.5.8.7,1.2.9,0,0,0,0,0,.3.4.5.8.7,1.2.9,0,0,0,0,0,.3.4.5.8.7,1.2.9,0,0,0,0,0,.3.4.5.8.7,1.2.9,0,0,0,0,0,.3.4.5.8.7,1.2.8,0,0,0,0,0,.3.4.5.8.7,1.2.8,0,0,0,0,0,.4.4.5.8.7,1.2.8,0,0,0,0,0,.4.4.5.8.7,1.2.8,0,0,0,0,0,.4.4.5.8.7,1.2.8,0,0,0,0,0,.4.4.5.8.7,1.2.8,0,0,0,0-.1.4.4.9.9,1.5,1.4,2,0,0,0,0,0,.3.5.5.8.7,1.2.9,0,0,0,0,0,.3.4.5.8.7,1.2.9,0,0,0,0,0,.3.9.9,1.6,1.5,2.4,2.1,0,0,0,0,0,.3.4.5.8.7,1.2.9,0,0,0,0,0,.3.4.5.8.7,1.2.9,0,0,0,0,0,.3.4.5.8.7,1.2.9,0,0,0,0,0,.3.4.5.8.7,1.2.9,0,0,0,0,0,.3.4.5.8.7,1.2.9,0,0,0,0,0,.3.4.5.8.7,1.2.9,0,0,0,0,0,.3.4.5.8.7,1.2.9,0,0,0,0,0,.3.4.5.8.7,1.2.9,0,0,0,0,0,.3.4.5.8.7,1.2.9,0,0,0,0,0,.3.4.5.8.7,1.2.9,0,0,0,0,0,.3.4.5.8.7,1.2.9,0,0,0,0,0,.3.4.5.8.7,1.2.9,0,0,0,0,0,.3.4.5.8.7,1.2.9,0,0,0,0,0,.3.4.5.8.7,1.2.8,0,0,0,0,0,.4.4.5.8.7,1.2.8,0,0,0,0,0,.4.4.5.8.7,1.2.8,0,0,0,0,0,.4.4.5.8.7,1.2.8,0,0,0,0,0,.4.4.5.8.7,1.2.8,0,0,0,0-.1.4.4.9.9,1.5,1.4,2,0,0,0,0,0,.3.4.5.8.7,1.2.9,0,0,0,0,0,.3.4.5.8.7,1.2.9,0,0,0,0,0,.3.8.7,1.5,1.1,2.1,1.5,0,0,.1,0,.2.5.4.7.8,1,1.2,1.3,0,0,0,0,0,.3.4.5.8.7,1.2.9,0,0,0,0,0,.3.4.5.8.7,1.2.9,0,0,0,0,0,.3.4.5.8.7,1.2.9,0,0,0,0,0,.3.4.5.8.7,1.2.9,0,0,0,0,0,.3.4.5.8.7,1.2.9,0,0,0,0,0,.3.4.5.8.7,1.2.9,0,0,0,0,0,.3.4.5.8.7,1.2.9,0,0,0,0,0,.3.4.5.8.7,1.2.9,0,0,0,0,0,.3.4.5.8.7,1.2.9,0,0,0,0,0,.3.4.5.8.7,1.2.9,0,0,0,0,0,.3.4.5.8.7,1.2.9,0,0,0,0,0,.3.4.5.8.7,1.2.9,0,0,0,0,0,.3.4.5.8.7,1.2.8,0,0,0,0,0,.3.4.5.8.7,1.2.8,0,0,0,0,0,.3.4.5.8.7,1.2.8,0,0,0,0,0,.3.4.5.8.7,1.2.8,0,0,0,0,0,.4.4.5.8.7,1.2.8,0,0,0,0,0,.4.4.5.8.7,1.2.8,0,0,0,0,0,.4.4.5.8.7,1.2.8,0,0,0,0,0,.4.4.5.8.7,1.2.8,0,0,0,0-.1.4.4.9.9,1.5,1.4,2,0,0,0,0,0,.3.4.5.8.7,1.2.9,0,0,0,0,0,.3.4.5.8.7,1.2.9,0,0,0,0,0,.3.4.5.8.7,1.2.9,0,0,0,0,0,.3.4.5.8.7,1.2.9,0,0,0,0,0,.3.4.5.8.7,1.2.9,0,0,0,0,0,.3.4.5.8.7,1.2.9,0,0,0,0,0,.3.4.5.8.7,1.2.9,0,0,0,0,0,.3.4.5.8.7,1.2.9,0,0,0,0,0,.3.4.5.8.7,1.2.9,0,0,0,0-.2.5-1.9.9-3.6,1.8-5.3,1.9-11.9.2-23.8,0-35.7.2-3.1,0-6.2.6-9.3.9,0,0-.3.2-1.1,0-21.3,0-41.8,0-62.4.1,0,0,0,0,0-.3-.4-.5-.8-.7-1.2-.9,0,0,0,0,0-.3-.4-.5-.8-.7-1.2-.9,0,0,0,0,0-.3-.4-.5-.8-.7-1.2-.9,0,0,0,0,0-.3-.6-.5-1.1-.7-1.5-.9,0,0-.1,0-.4-.3-.7-.5-1.2-.7-1.6-.8,0,0,0,0,0-.4-.4-.5-.8-.7-1.2-.8,0,0,0,0,0-.4-.4-.5-.8-.7-1.2-.8,0,0,0,0,0-.4-.4-.5-.8-.7-1.2-.8,0,0,0,0,0-.3-.4-.5-.8-.7-1.2-.8,0,0,0,0,0-.3-.4-.5-.8-.7-1.2-.9,0,0,0,0,0-.3-.4-.5-.8-.7-1.2-.9,0,0,0,0,0-.3-.4-.5-.8-.7-1.2-.9,0,0,0,0,0-.3-.4-.5-.8-.7-1.2-.9,0,0,0,0,0-.3-.4-.5-.8-.7-1.2-.9,0,0,0,0,0-.3-.4-.5-.8-.7-1.2-.9,0,0,0,0,0-.4-.6-.5-1.1-.7-1.6-.9,0,0-.1,0-.4-.3-.7-.5-1.2-.6-1.6-.8,0,0,0,0,0-.4-.4-.5-.8-.7-1.2-.8,0,0,0,0,0-.4-.4-.5-.8-.7-1.2-.8,0,0,0,0,0-.4-.4-.5-.8-.7-1.2-.8,0,0,0,0,0-.4-.4-.5-.8-.7-1.2-.8,0,0,0,0,0-.4-.4-.5-.8-.7-1.2-.8,0,0,0,0,0-.3-.4-.5-.8-.7-1.2-.8,0,0,0,0,0-.3-.4-.5-.8-.7-1.2-.9,0,0,0,0,0-.3-.4-.5-.8-.7-1.2-.9,0,0,0,0,0-.3-.4-.5-.8-.7-1.2-.9,0,0,0,0,0-.3-.4-.5-.8-.7-1.2-.9,0,0,0,0,0-.3-.4-.5-.8-.7-1.2-.9,0,0,0,0,0-.3-.4-.5-.8-.7-1.2-.9,0,0,0,0,0-.3-.4-.5-.8-.7-1.2-.9,0,0,0,0,0-.3-.4-.5-.8-.7-1.2-.9,0,0,0,0,0-.3-.4-.5-.8-.7-1.2-.9,0,0,0,0,0-.3-.5-.5-.8-.7-1.2-.9,0,0,0,0,0-.3-.9-.5-1.6-.7-2.3-.8,0,0,0,0,0-.4-.4-.5-.8-.7-1.2-.8,0,0,0,0,0-.4-.4-.5-.8-.7-1.2-.8,0,0,0,0,0-.3-.4-.5-.8-.7-1.2-.8,0,0,0,0,0-.3-.4-.5-.8-.7-1.2-.9,0,0,0,0,0-.3-.4-.5-.8-.7-1.2-.9,0,0,0,0,0-.3-.4-.5-.8-.7-1.2-.9,0,0,0,0,0-.3-.4-.5-.8-.7-1.2-.9,0,0,0,0,0-.3-.4-.5-.8-.7-1.2-.9,0,0,0,0,0-.3-.4-.5-.8-.7-1.2-.9,0,0,0,0,0-.3-.4-.5-.8-.7-1.2-.9,0,0,0,0,0-.4-.6-.5-1.1-.7-1.6-.9,0,0-.1,0-.4-.3-.7-.5-1.2-.7-1.6-.8,0,0,0,0,0-.4-.4-.5-.8-.7-1.2-.8,0,0,0,0,0-.4-.4-.5-.8-.7-1.2-.8,0,0,0,0,0-.4-.4-.5-.8-.7-1.2-.8,0,0,0,0,0-.4-.4-.5-.8-.7-1.2-.8,0,0,0,0,0-.3-.4-.5-.8-.7-1.2-.8,0,0,0,0,0-.3-.4-.5-.8-.7-1.2-.8,0,0,0,0,0-.3-.4-.5-.8-.7-1.2-.9,0,0,0,0,0-.3-.4-.5-.8-.7-1.2-.9,0,0,0,0,0-.3-.4-.5-.8-.7-1.2-.9,0,0,0,0,0-.3-.4-.5-.8-.7-1.2-.9,0,0,0,0,0-.3-.4-.5-.8-.7-1.2-.9,0,0,0,0,0-.3-.4-.5-.8-.7-1.2-.9,0,0,0,0,0-.3-.4-.5-.8-.7-1.2-.9,0,0,0,0,0-.3-.4-.5-.8-.7-1.2-.9,0,0,0,0,0-.3-.4-.5-.8-.7-1.2-.9,0,0,0,0,0-.3-.9-.5-1.6-.7-2.3-.8,0,0,0,0,0-.4-.4-.5-.8-.7-1.2-.8,0,0,0,0,0-.4-.4-.5-.8-.7-1.2-.8,0,0,0,0,0-.3-.4-.5-.8-.7-1.2-.8,0,0,0,0,0-.4-.6-.5-1.1-.7-1.6-.9Z"/>
        <path class="cls-1" d="M17.1,500.7c-1.1.8-2.2,1.7-4,2.7-1.2.9-1.7,1.7-2.2,2.4,0,.4-.2.7-1.1,1.1-.9.5-1.1.9-1.4,1.3,0,0,0,0-.3,0-.5.5-.7.8-.9,1.2,0,0,0,0-.3,0-.5.4-.7.8-.9,1.2,0,0,0,0-.3,0-.5.4-.7.8-.9,1.2,0,0,0,0-.3,0-.5.4-.7.8-.9,1.2,0,0,0,0-.5-.1-1.4-1.2-2.3-2.4-3.2-3.6,0,0,0,0,.4,0,.5-.4.7-.8.8-1.2,0,0,0,0,.4,0,.5-.4.7-.8.8-1.2,0,0,0,0,.3,0,.5-.4.7-.8.8-1.2,0,0,0,0,.3,0,.5-.4.7-.8.9-1.2,0,0,0,0,.3,0,.5-.4.7-.8.9-1.2,0,0,0,0,.3,0,.5-.4.7-.8.9-1.2,0,0,0,0,.3,0,.5-.4.7-.8.9-1.2,0,0,0,0,.3,0,.5-.5.7-.9.9-1.3,0,0,0,.1.4,0,.9-.9,1.4-1.6,2-2.4.5-.7,1.1-1.4,2.3-2.3.9-1,1.1-1.7,1.3-2.4,0,0,0,0,.4,0,.5-.4.7-.8.8-1.2,0,0,0,0,.3,0,.5-.4.7-.8.9-1.2,0,0,0,0,.3,0,.5-.4.7-.8.9-1.2,0,0,0,0,.3,0,.5-.4.7-.8.9-1.2,0,0,0,0,.3,0,.5-.4.7-.8.9-1.2,0,0,0,0,.3,0,.5-.6.7-1.1.9-1.5,0,0,0-.1.3-.4.5-.7.7-1.2.8-1.6,0,0,0,0,.4,0,.5-.4.7-.8.8-1.2,0,0,0,0,.4,0,.5-.4.7-.8.8-1.2,0,0,0,0,.3,0,.5-.4.7-.8.8-1.2,0,0,0,0,.3,0,.5-.4.7-.8.9-1.2,0,0,0,0,.3,0,.5-.4.7-.8.9-1.2,0,0,0,0,.3,0,.5-.4.7-.8.9-1.2,0,0,0,0,.3,0,.5-.4.7-.8.9-1.2,0,0,0,0,.3,0,.5-.4.7-.8.9-1.2,0,0,0,0,.3,0,.5-.6.7-1.1.9-1.5,0,0,0-.1.3-.4.5-.7.7-1.2.8-1.6,0,0,0,0,.3.2.5,0,.7,0,1.3-.2.5-.9.7-1.7.8-2.4,0,0,0,0,.4,0,.5-.4.7-.8.8-1.2,0,0,0,0,.3,0,.5-.4.7-.8.9-1.2,0,0,0,0,.3,0,.5-.4.7-.8.9-1.2,0,0,0,0,.3,0,.5-.4.7-.8.9-1.2,0,0,0,0,.3,0,.5-.4.7-.8.9-1.2,0,0,0,0,.3,0,.5-.4.7-.8.9-1.2,0,0,0,0,.3,0,.5-.4.7-.8.9-1.2,0,0,0,0,.3,0,.5-.4.7-.8.9-1.2,0,0,0,0,.3,0,.5-.6.7-1,.9-1.5,0,0,0-.2.3-.4.5-.7.7-1.2.8-1.6,0,0,0,0,.4,0,.5-.4.7-.8.8-1.2,0,0,0,0,.4,0,.5-.4.7-.8.8-1.2,0,0,0,0,.4,0,.5-.4.7-.8.8-1.2,0,0,0,0,.4,0,.5-.4.7-.8.8-1.2,0,0,0,0,.3,0,.5-.4.7-.8.9-1.2,0,0,0,0,.3,0,.5-.4.7-.8.9-1.2,0,0,0,0,.3,0,.5-.4.7-.8.9-1.2,0,0,0,0,.3,0,.5-.4.7-.8.9-1.2,0,0,0,0,.3,0,.5-.4.7-.8.9-1.2,0,0,0,0,.3,0,.5-.4.7-.8.9-1.2,0,0,0,0,.3,0,.5-.4.7-.8.9-1.2,0,0,0,0,.3,0,.5-.4.7-.8.9-1.2,0,0,0,0,.3,0,.5-.4.7-.8.9-1.2,0,0,0,0,.3,0,.5-.4.7-.8.9-1.2,0,0,0,0,.3,0,.5-.4.7-.8.9-1.2,0,0,0,0,.3,0,.5-.5.7-.8.9-1.2,0,0,0,0,.3,0,.5-.5.7-.8.9-1.2,0,0,0,0,.3,0,.5-.5.7-.8.9-1.2,0,0,0,0,.3,0,.5-.5.7-.8.9-1.2,0,0,0,0,.3,0,.5-.9.7-1.6.8-2.3,0,0,0,0,.4,0,.5-.4.7-.8.8-1.2,0,0,0,0,.4,0,.5-.4.7-.8.8-1.2,0,0,0,0,.4,0,.5-.4.7-.8.8-1.2,0,0,0,0,.4,0,.5-.4.7-.8.8-1.2,0,0,0,0,.3,0,.5-.4.7-.8.8-1.2,0,0,0,0,.3,0,.5-.4.7-.8.8-1.2,0,0,0,0,.3,0,.5-.4.7-.8.9-1.2,0,0,0,0,.3,0,.5-.4.7-.8.9-1.2,0,0,0,0,.3,0,.5-.4.7-.8.9-1.2,0,0,0,0,.3,0,.5-.4.7-.8.9-1.2,0,0,0,0,.3,0,.5-.4.7-.8.9-1.2,0,0,0,0,.3,0,.5-.4.7-.8.9-1.2,0,0,0,0,.3,0,.5-.4.7-.8.9-1.2,0,0,0,0,.3,0,.5-.6.7-1.1.9-1.5,0,0,0-.1.3-.4.7-.6,1-1,1.3-1.4.2-.2.4-.4,1-.9.6-.8.7-1.2.9-1.7,0,0,0,0,.4,0,.5-.4.7-.8.8-1.2,0,0,0,0,.4,0,.5-.4.7-.8.8-1.2,0,0,0,0,.4,0,.5-.4.7-.8.8-1.2,0,0,0,0,.3,0,.5-.4.7-.8.8-1.2,0,0,0,0,.3,0,.5-.4.7-.8.9-1.2,0,0,0,0,.3,0,.5-.4.7-.8.9-1.2,0,0,0,0,.3,0,.5-.4.7-.8.9-1.2,0,0,0,0,.3,0,.5-.4.7-.8.9-1.2,0,0,0,0,.3,0,.5-.4.7-.8.9-1.2,0,0,0,0,.3,0,.5-.4.7-.8.9-1.2,0,0,0,0,.3,0,.5-.4.7-.8.9-1.2,0,0,0,0,.3,0,.5-.4.7-.8.9-1.2,0,0,0,0,.3,0,.5-.4.7-.8.9-1.2,0,0,0,0,.3,0,.5-.4.7-.8.9-1.2,0,0,0,0,.3,0,.5-.4.7-.8.9-1.2,0,0,0,0,.3,0,.5-.5.7-.8.9-1.2,0,0,0,0,.3,0,.5-.9.7-1.6.8-2.3,0,0,0,0,.3.2.5,0,.7,0,1.3-.2.5-.9.7-1.7.8-2.4,0,0,0,0,.4,0,.5-.4.7-.8.8-1.2,0,0,0,0,.4,0,.5-.4.7-.8.8-1.2,0,0,0,0,.4,0,.5-.4.7-.8.8-1.2,0,0,0,0,.4,0,.5-.4.7-.8.8-1.2,0,0,0,0,.3,0,.5-.4.7-.8.8-1.2,0,0,0,0,.3,0,.5-.4.7-.8.9-1.2,0,0,0,0,.3,0,.5-.4.7-.8.9-1.2,0,0,0,0,.3,0,.5-.4.7-.8.9-1.2,0,0,0,0,.3,0,.5-.4.7-.8.9-1.2,0,0,0,0,.3,0,.5-.4.7-.8.9-1.2,0,0,0,0,.3,0,.5-.4.7-.8.9-1.2,0,0,0,0,.3,0,.5-.4.7-.8.9-1.2,0,0,0,0,.3,0,.5-.4.7-.8.9-1.2,0,0,0,0,.3,0,.5-.4.7-.8.9-1.2,0,0,0,0,.3,0,.5-.4.7-.8.9-1.2,0,0,0,0,.3,0,.5-.4.7-.8.9-1.2,0,0,0,0,.3,0,.5-.4.7-.8.9-1.2,0,0,0,0,.3,0,.5-.4.7-.8.9-1.2,0,0,0,0,.3,0,.5-.4.7-.8.9-1.2,0,0,0,0,.3,0,.5-.5.7-.8.9-1.2,0,0,0,0,.3,0,.5-.5.7-.8.9-1.2,0,0,0,0,.3,0,.5-.5.7-.8.9-1.2,0,0,0,0,.3,0,.5-.9.7-1.6.8-2.3,0,0,0,0,.4,0,.5-.4.7-.8.8-1.2,0,0,0,0,.4,0,.5-.4.7-.8.8-1.2,0,0,0,0,.4,0,.5-.4.7-.8.8-1.2,0,0,0,0,.4,0,.5-.4.7-.8.8-1.2,0,0,0,0,.4,0,.5-.4.7-.8.8-1.2,0,0,0,0,.4,0,.5-.4.7-.8.8-1.2,0,0,0,0,.4,0,.5-.4.7-.8.8-1.2,0,0,0,0,.4,0,.5-.4.7-.8.8-1.2,0,0,0,0,.4,0,.5-.4.7-.8.8-1.2,0,0,0,0,.4,0,.5-.4.7-.8.8-1.2,0,0,0,0,.3,0,.5-.4.7-.8.8-1.2,0,0,0,0,.3,0,.5-.4.7-.8.8-1.2,0,0,0,0,.3,0,.5-.4.7-.8.8-1.2,0,0,0,0,.3,0,.5-.4.7-.8.9-1.2,0,0,0,0,.3,0,.5-.4.7-.8.9-1.2,0,0,0,0,.3,0,.5-.4.7-.8.9-1.2,0,0,0,0,.3,0,.5-.4.7-.8.9-1.2,0,0,0,0,.3,0,.5-.4.7-.8.9-1.2,0,0,0,0,.3,0,.5-.4.7-.8.9-1.2,0,0,0,0,.3,0,.5-.4.7-.8.9-1.2,0,0,0,0,.3,0,.5-.4.7-.8.9-1.2,0,0,0,0,.3,0,.5-.4.7-.8.9-1.2,0,0,0,0,.3,0,.5-.4.7-.8.9-1.2,0,0,0,0,.3,0,.5-.4.7-.8.9-1.2,0,0,0,0,.3,0,.5-.4.7-.8.9-1.2,0,0,0,0,.3,0,.5-.4.7-.8.9-1.2,0,0,0,0,.3,0,.5-.4.7-.8.9-1.2,0,0,0,0,.3,0,.5-.4.7-.8.9-1.2,0,0,0,0,.3,0,.5-.4.7-.8.9-1.2,0,0,0,0,.3,0,.5-.4.7-.8.9-1.2,0,0,0,0,.3,0,.5-.4.7-.8.9-1.2,0,0,0,0,.3,0,.5-.4.7-.8.9-1.2,0,0,0,0,.3,0,.5-.4.7-.8.9-1.2,0,0,0,0,.3,0,.5-.4.7-.8.9-1.2,0,0,0,0,.3,0,.5-.4.7-.8.9-1.2,0,0,0,0,.3,0,.5-.4.7-.8.9-1.2,0,0,0,0,.3,0,.5-.4.7-.8.9-1.2,0,0,0,0,.3,0,.5-.4.7-.8.9-1.2,0,0,0,0,.3,0,.5-.4.7-.8.9-1.2,0,0,0,0,.3,0,.5-.4.7-.8.9-1.2,0,0,0,0,.3,0,.5-.4.7-.8.9-1.2,0,0,0,0,.3,0,.5-.4.7-.8.9-1.2,0,0,0,0,.3,0,.5-.4.7-.8.9-1.2,0,0,0,0,.3,0,.5-.4.7-.8.9-1.2,0,0,0,0,.3,0,.5-.4.7-.8.9-1.2,0,0,0,0,.3,0,.5-.4.7-.8.9-1.2,0,0,0,0,.3,0,.5-.4.7-.8.9-1.2,0,0,0,0,.3,0,.5-.4.7-.8.9-1.2,0,0,0,0,.3,0,.5-.4.7-.8.9-1.2,0,0,0,0,.3,0,.5-.4.7-.8.9-1.2,0,0,0,0,.3,0,.5-.4.7-.8.9-1.2,0,0,0,0,.3,0,.5-.4.7-.8.9-1.2,0,0,0,0,.3,0,.5-.4.7-.8.9-1.2,0,0,0,0,.3,0,.5-.4.7-.8.9-1.2,0,0,0,0,.3,0,.5-.4.7-.8.9-1.2,0,0,0,0,.3,0,.5-.4.7-.8.9-1.2,0,0,0,0,.3,0,.5-.4.7-.8.9-1.2,0,0,0,0,.3,0,.5-.4.7-.8.9-1.2,0,0,0,0,.3,0,.5-.4.7-.8.9-1.2,0,0,0,0,.3,0,.5-.4.7-.8.9-1.2,0,0,0,0,.3,0,.5-.4.7-.8.9-1.2,0,0,0,0,.3,0,.5-.4.7-.8.9-1.2,0,0,0,0,.3,0,.5-.4.7-.8.9-1.2,0,0,0,0,.3,0,.5-.4.7-.8.9-1.2,0,0,0,0,.3,0,.5-.4.7-.8.9-1.2,0,0,0,0,.3,0,.5-.4.7-.8.9-1.2,0,0,0,0,.3,0,.5-.4.7-.8.9-1.2,0,0,0,0,.3,0,.5-.4.7-.8.9-1.2,0,0,0,0,.3,0,.5-.4.7-.8.9-1.2,0,0,0,0,.3,0,.5-.4.7-.8.9-1.2,0,0,0,0,.3,0,.5-.4.7-.8.9-1.2,0,0,0,0,.3,0,.5-.4.7-.8.9-1.2,0,0,0,0,.3,0,.5-.4.7-.8.9-1.2,0,0,0,0,.3,0,.5-.4.7-.8.9-1.2,0,0,0,0,.3,0,.5-.4.7-.8.9-1.2,0,0,0,0,.3,0,.5-.4.7-.8.9-1.2,0,0,0,0,.3,0,.5-.4.7-.8.9-1.2,0,0,0,0,.3,0,.5-.4.7-.8.9-1.2,0,0,0,0,.3,0,.5-.4.7-.8.9-1.2,0,0,0,0,.3,0,.5-.4.7-.8.9-1.2,0,0,0,0,.3,0,.5-.4.7-.8.9-1.2,0,0,0,0,.3,0,.5-.4.7-.8.9-1.2,0,0,0,0,.3,0,.5-.4.7-.8.9-1.2,0,0,0,0,.3,0,.5-.4.7-.8.9-1.2,0,0,0,0,.3,0,.5-.4.7-.8.9-1.2,0,0,0,0,.3,0,.5-.4.7-.8.9-1.2,0,0,0,0,.3,0,.5-.4.7-.8.9-1.2,0,0,0,0,.3,0,.5-.4.7-.8.9-1.2,0,0,0,0,.3,0,.5-.4.7-.8.9-1.2,0,0,0,0,.3,0,.5-.4.7-.8.9-1.2,0,0,0,0,.3,0,.5-.4.7-.8.9-1.2,0,0,0,0,.3,0,.5-.4.7-.8.9-1.2,0,0,0,0,.3,0,.5-.4.7-.8.9-1.2,0,0,0,0,.3,0,.5-.4.7-.8.9-1.2,0,0,0,0,.3,0,.5-.4.7-.8.9-1.2,0,0,0,0,.3,0,.5-.4.7-.8.9-1.2,0,0,0,0,.3,0,.5-.4.7-.8.9-1.2,0,0,0,0,.3,0,.5-.4.7-.8.9-1.2,0,0,0,0,.3,0,.5-.4.7-.8.9-1.2,0,0,0,0,.3,0,.5-.4.7-.8.9-1.2,0,0,0,0,.3,0,.5-.4.7-.8.9-1.2,0,0,0,0,.3,0,.5-.4.7-.8.9-1.2,0,0,0,0,.3,0,.5-.4.7-.8.8-1.2,0,0,0,0,.3,0,.5-.4.7-.8.8-1.2,0,0,0,0,.3,0,.5-.4.7-.8.8-1.2,0,0,0,0,.3,0,.5-.4.7-.8.8-1.2,0,0,0,0,.3,0,.5-.4.7-.8.8-1.2,0,0,0,0,.4,0,.5-.4.7-.8.8-1.2,0,0,0,0,.4,0,.5-.4.7-.8.8-1.2,0,0,0,0,.4,0,.5-.4.7-.8.8-1.2,0,0,0,0,.4,0,.5-.4.7-.8.8-1.2,0,0,0,0,.4,0,.5-.4.7-.8.8-1.2,0,0,0,0,.4.1.9-.5,1.5-1,2-1.5.6-.7,1.1-1.4,2.2-2,1.2-.9,1.9-1.8,2.6-2.7,0,0,0,0,.3,0,.5-.4.7-.8.9-1.2,0,0,0,0,.3,0,.9-.9,1.5-1.6,2.1-2.4,0,0,0,0,.3,0,.5-.4.7-.8.9-1.2,0,0,0,0,.3,0,.5-.4.7-.8.9-1.2,0,0,0,0,.3,0,.5-.4.7-.8.9-1.2,0,0,0,0,.3,0,.5-.4.7-.8.9-1.2,0,0,0,0,.3,0,.5-.4.7-.8.9-1.2,0,0,0,0,.3,0,.5-.4.7-.8.9-1.2,0,0,0,0,.3,0,.5-.4.7-.8.9-1.2,0,0,0,0,.3,0,.5-.4.7-.8.9-1.2,0,0,0,0,.3,0,.5-.4.7-.8.9-1.2,0,0,0,0,.3,0,.5-.4.7-.8.9-1.2,0,0,0,0,.3,0,.5-.4.7-.8.9-1.2,0,0,0,0,.3,0,.5-.4.7-.8.9-1.2,0,0,0,0,.3,0,.5-.4.7-.8.9-1.2,0,0,0,0,.3,0,.5-.4.7-.8.9-1.2,0,0,0,0,.3,0,.5-.4.7-.8.9-1.2,0,0,0,0,.3,0,.5-.4.7-.8.9-1.2,0,0,0,0,.3,0,.5-.4.7-.8.9-1.2,0,0,0,0,.3,0,.5-.4.7-.8.9-1.2,0,0,0,0,.3,0,.5-.4.7-.8.9-1.2,0,0,0,0,.3,0,.5-.4.7-.8.9-1.2,0,0,0,0,.3,0,.5-.4.7-.8.8-1.2,0,0,0,0,.4,0,.5-.4.7-.8.8-1.2,0,0,0,0,.4,0,.5-.4.7-.8.8-1.2,0,0,0,0,.4,0,.5-.4.7-.8.8-1.2,0,0,0,0,.4,0,.5-.4.7-.8.8-1.2,0,0,0,0,.4,0,.5-.4.7-.8.8-1.2,0,0,0,0,.4,0,.5-.4.7-.8.8-1.2,0,0,0,0,.4,0,.5-.4.7-.8.8-1.2,0,0,0,0,.4,0,.5-.4.7-.8.8-1.2,0,0,0,0,.4.1.9-.4,1.5-.9,2-1.4,0,0,0,0,.3,0,.5-.5.7-.8.9-1.2,0,0,0,0,.3,0,.5-.5.7-.8.9-1.2,0,0,0,0,.3,0,.5-.4.7-.8.9-1.2,0,0,0,0,.3,0,.5-.4.7-.8.9-1.2,0,0,0,0,.3,0,.5-.4.7-.8.9-1.2,0,0,0,0,.3,0,.5-.4.7-.8.9-1.2,0,0,0,0,.3,0,.5-.4.7-.8.9-1.2,0,0,0,0,.3,0,.5-.4.7-.8.9-1.2,0,0,0,0,.3,0,.5-.4.7-.8.9-1.2,0,0,0,0,.3,0,.5-.4.7-.8.9-1.2,0,0,0,0,.3,0,.5-.4.7-.8.9-1.2,0,0,0,0,.3,0,.5-.4.7-.8.9-1.2,0,0,0,0,.3,0,.5-.4.7-.8.9-1.2,0,0,0,0,.3,0,.5-.4.7-.8.9-1.2,0,0,0,0,.3,0,.5-.4.7-.8.8-1.2,0,0,0,0,.3,0,.5-.4.7-.8.8-1.2,0,0,0,0,.4,0,.5-.4.7-.8.8-1.2,0,0,0,0,.4,0,.5-.4.7-.8.8-1.2,0,0,0,0,.4.1.9-.5,1.5-1,2-1.5,0-.4.2-.7,1.1-1.1.8-.5,1-.9,1.3-1.2,0-.4.2-.7,1.1-1.1.9-.5,1.1-.9,1.4-1.3,0,0,0,0,.3,0,.5-.4.7-.8.9-1.2,0,0,0,0,.3,0,.5-.4.7-.8.9-1.2,0,0,0,0,.3,0,.5-.4.7-.8.9-1.2,0,0,0,0,.3,0,.5-.4.7-.8.9-1.2,0,0,0,0,.3,0,.5-.4.7-.8.9-1.2,0,0,0,0,.3,0,.5-.4.7-.8.9-1.2,0,0,0,0,.3,0,.5-.4.7-.8.9-1.2,0,0,0,0,.3,0,.5-.4.7-.8.9-1.2,0,0,0,0,.3,0,.5-.4.7-.8.9-1.2,0,0,0,0,.3,0,.5-.4.7-.8.8-1.2,0,0,0,0,.3,0,.5-.4.7-.8.8-1.2,0,0,0,0,.3,0,.5-.4.7-.8.8-1.2,0,0,0,0,.4,0,.5-.4.7-.8.8-1.2,0,0,0,0,.4,0,.5-.4.7-.8.8-1.2,0,0,0,0,.4,0,.5-.4.7-.8.8-1.2,0,0,0,0,.4,0,.5-.4.7-.8.8-1.2,0,0,0,0,.4,0,.7-.4,1-.7,1.4-1.1,0,0,0-.1.5-.2.7-.4,1-.8,1.3-1.2,0,0,0,0,.3,0,.5-.4.7-.8.9-1.2,0,0,0,0,.3,0,.5-.4.7-.8.9-1.2,0,0,0,0,.3,0,.5-.4.7-.8.9-1.2,0,0,0,0,.3,0,.5-.4.7-.8.9-1.2,0,0,0,0,.3,0,.5-.4.7-.8.9-1.2,0,0,0,0,.3,0,.5-.4.7-.8.9-1.2,0,0,0,0,.3,0,.5-.4.7-.8.9-1.2,0,0,0,0,.3,0,.5-.4.7-.8.8-1.2,0,0,0,0,.3,0,.5-.4.7-.8.8-1.2,0,0,0,0,.4.1.9-.4,1.5-.9,2.1-1.4,0,0,0,0,.3,0,.5-.5.7-.8.9-1.2,0,0,0,0,.3,0,.5-.5.7-.8.9-1.2,0,0,0,0,.3,0,.5-.4.7-.8.9-1.2,0,0,0,0,.3,0,.5-.4.7-.8.9-1.2,0,0,0,0,.3,0,.5-.4.7-.8.9-1.2,0,0,0,0,.3,0,.5-.4.7-.8.9-1.2,0,0,0,0,.3,0,.5-.4.7-.8.9-1.2,0,0,0,0,.3,0,.5-.4.7-.8.9-1.2,0,0,0,0,.3,0,.5-.4.7-.8.9-1.2,0,0,0,0,.3,0,.5-.4.7-.8.8-1.2,0,0,0,0,.3,0,.5-.4.7-.8.8-1.2,0,0,0,0,.4,0,.5-.4.7-.8.8-1.2,0,0,0,0,.4,0,.5-.4.7-.8.8-1.2,0,0,0,0,.4,0,.5-.4.7-.8.8-1.2,0,0,0,0,.4.1.9-.4,1.5-.9,2-1.4,0,0,0,0,.3,0,.5-.4.7-.8.9-1.2,0,0,0,0,.3,0,.5-.4.7-.8.9-1.2,0,0,0,0,.3,0,.5-.4.7-.8.9-1.2,0,0,0,0,.3,0,.5-.4.7-.8.9-1.2,0,0,0,0,.3,0,.5-.4.7-.8.9-1.2,0,0,0,0,.3,0,.5-.4.7-.8.9-1.2,0,0,0,0,.3,0,.5-.4.7-.8.9-1.2,0,0,0,0,.3,0,.5-.4.7-.8.8-1.2,0,0,0,0,.4,0,.5-.4.7-.8.8-1.2,0,0,0,0,.3.2.5,0,.7,0,1.2-.2.5-.6.7-1,.9-1.4.9-1,1.8-2,3.3-3.3.9-.6,1.2-1,1.4-1.4,0,0,0,0,.3,0,.5-.4.7-.8.9-1.2,0,0,0,0,.3,0,.5-.4.7-.8.9-1.2,0,0,0,0,.3,0,.5-.4.7-.8.9-1.2,0,0,0,0,.3,0,.5-.4.7-.8.9-1.2,0,0,0,0,.3,0,.5-.4.7-.8.8-1.2,0,0,0,0,.4,0,.5-.4.7-.8.8-1.2,0,0,0,0,.4,0,.5-.4.7-.8.8-1.2,0,0,0,0,.4,0,.7-.4,1-.7,1.4-1.1.2-.2.4-.4,1.1-.8,1-.8,1.5-1.3,2-1.8,0,0,0,0,.3,0,.5-.4.7-.8.9-1.2,0,0,0,0,.3,0,.5-.4.7-.8.9-1.2,0,0,0,0,.3,0,.5-.4.7-.8.9-1.2,0,0,0,0,.3,0,.5-.4.7-.8.9-1.2,0,0,0,0,.3,0,.5-.4.7-.8.9-1.2,0,0,0,0,.3,0,.5-.4.7-.8.9-1.2,0,0,0,0,.3,0,.5-.4.7-.8.9-1.2,0,0,0,0,.3,0,.5-.4.7-.8.8-1.2,0,0,0,0,.4,0,.5-.4.7-.8.8-1.2,0,0,0,0,.4,0,.5-.4.7-.8.8-1.2,0,0,0,0,.4,0,.7-.4,1-.7,1.4-1.1,0,0,.1-.1.6-.2.8-.4,1-.8,1.3-1.2,0,0,0,0,.3,0,.5-.5.7-.8.9-1.2,0,0,0,0,.3,0,.5-.4.7-.8.9-1.2,0,0,0,0,.3,0,.5-.4.7-.8.9-1.2,0,0,0,0,.3,0,.5-.4.7-.8.9-1.2,0,0,0,0,.3,0,.5-.4.7-.8.9-1.2,0,0,0,0,.3,0,.6-.4,1-.7,1.3-1,1.6-1.6,3.1-3.1,5.4-4.9.9-.6,1.2-1,1.4-1.3,0,0,0,0,.3,0,.5-.4.7-.8.9-1.2,0,0,0,0,.3,0,.5-.4.7-.8.9-1.2,0,0,0,0,.3,0,.5-.4.7-.8.9-1.2,0,0,0,0,.3,0,.5-.4.7-.8.9-1.2,0,0,0,0,.3,0,.5-.4.7-.8.8-1.2,0,0,0,0,.4,0,.5-.4.7-.8.8-1.2,0,0,0,0,.4,0,.5-.4.7-.8.8-1.2,0,0,0,0,.4,0,.7-.4,1-.7,1.4-1.1,0,0,0-.1.5-.2.7-.4,1-.8,1.3-1.2,0,0,0,0,.3,0,.5-.4.7-.8.9-1.2,0,0,0,0,.3,0,.5-.4.7-.8.9-1.2,0,0,0,0,.3,0,.5-.4.7-.8.9-1.2,0,0,0,0,.3,0,.5-.4.7-.8.8-1.2,0,0,0,0,.4,0,.5-.4.7-.8.8-1.2,0,0,0,0,.4,0,.7-.4,1-.7,1.4-1.1,0,0,0-.1.5-.2.8-.4,1-.8,1.3-1.2,0,0,0,0,.3,0,.5-.4.7-.8.9-1.2,0,0,0,0,.3,0,.5-.4.7-.8.9-1.2,0,0,0,0,.3,0,.5-.4.7-.8.9-1.2,0,0,0,0,.4.1.9-.4,1.5-.9,2-1.4,0,0,0,.1.3,0,.8-.4,1.3-.7,1.8-1.1,1.5-1.6,3-3.2,5.2-5,1.2-.9,1.7-1.7,2.2-2.4,0-.4.2-.7,1.1-1.1.9-.5,1.1-.9,1.4-1.3,0,0,0,0,.3,0,.5-.5.7-.8.9-1.2,0,0,0,0,.3,0,.5-.4.7-.8.9-1.2,0,0,0,0,.3,0,.5-.4.7-.8.9-1.2,0,0,0,0,.3,0,.5-.4.7-.8.9-1.2,0,0,0,0,.4.1,1.4,1.2,2.3,2.4,3.2,3.6,0,0,0,0-.4,0-.5.4-.7.8-.8,1.2,0,0,0,0-.4,0-.5.4-.7.8-.8,1.2,0,0,0,0-.4,0-.5.4-.7.8-.8,1.2,0,0,0,0-.3,0-.5.4-.7.8-.9,1.2,0,0,0,0-.3,0-.5.4-.7.8-.9,1.2,0,0,0,0-.3,0-.5.4-.7.8-.9,1.2,0,0,0,0-.3,0-.5.4-.7.8-.9,1.2,0,0,0,0-.3,0-.5.5-.7.9-.9,1.4-.9,1-1.8,2.1-3.4,3.4-.9,1-1.1,1.7-1.3,2.4,0,0,0,0-.4,0-.5.4-.7.8-.8,1.2,0,0,0,0-.3,0-.5.4-.7.8-.8,1.2,0,0,0,0-.3,0-.5.4-.7.8-.9,1.2,0,0,0,0-.3,0-.5.4-.7.8-.9,1.2,0,0,0,0-.3,0-.5.4-.7.8-.9,1.2,0,0,0,0-.3,0-.5.4-.7.8-.9,1.2,0,0,0,0-.3,0-.5.6-.7,1-.9,1.5,0,0,0,.2-.3.4-.5.7-.7,1.1-.8,1.6,0,0,0,0-.4,0-.5.4-.7.8-.8,1.2,0,0,0,0-.4,0-.5.4-.7.8-.8,1.2,0,0,0,0-.3,0-.5.4-.7.8-.9,1.2,0,0,0,0-.3,0-.5.4-.7.8-.9,1.2,0,0,0,0-.3,0-.5.4-.7.8-.9,1.2,0,0,0,0-.3,0-.5.4-.7.8-.9,1.2,0,0,0,0-.3,0-.5.4-.7.8-.9,1.2,0,0,0,0-.3-.1-.8.4-1.4.8-2,1.6,0,1,0,1.5,0,2,0,0,0,0-.4,0-.5.4-.7.8-.8,1.2,0,0,0,0-.4,0-.5.4-.7.8-.8,1.2,0,0,0,0-.4,0-.5.4-.7.8-.8,1.2,0,0,0,0-.3,0-.5.4-.7.8-.9,1.2,0,0,0,0-.3,0-.5.4-.7.8-.9,1.2,0,0,0,0-.3,0-.5.4-.7.8-.9,1.2,0,0,0,0-.3,0-.5.4-.7.8-.9,1.2,0,0,0,0-.3,0-.5.4-.7.8-.9,1.2,0,0,0,0-.3,0-.5.4-.7.8-.9,1.2,0,0,0,0-.3,0-.5.5-.7.9-.9,1.4-.5.6-1,1.3-2.2,2.2-.9,1-1.1,1.7-1.3,2.4,0,0,0,0-.4,0-.5.4-.7.8-.8,1.2,0,0,0,0-.4,0-.5.4-.7.8-.8,1.2,0,0,0,0-.4,0-.5.4-.7.8-.8,1.2,0,0,0,0-.3,0-.5.4-.7.8-.8,1.2,0,0,0,0-.3,0-.5.4-.7.8-.9,1.2,0,0,0,0-.3,0-.5.4-.7.8-.9,1.2,0,0,0,0-.3,0-.5.4-.7.8-.9,1.2,0,0,0,0-.3,0-.5.4-.7.8-.9,1.2,0,0,0,0-.3,0-.5.4-.7.8-.9,1.2,0,0,0,0-.3,0-.5.4-.7.8-.9,1.2,0,0,0,0-.3,0-.5.4-.7.8-.9,1.2,0,0,0,0-.3,0-.5.4-.7.8-.9,1.2,0,0,0,0-.3,0-.5.4-.7.8-.9,1.2,0,0,0,0-.3,0-.5.4-.7.8-.9,1.2,0,0,0,0-.3,0-.5.5-.7.8-.9,1.2,0,0,0,0-.3,0-.5.6-.7,1.1-.9,1.5,0,0,0,.1-.3.4-.5.7-.7,1.2-.8,1.6,0,0,0,0-.4,0-.5.4-.7.8-.8,1.2,0,0,0,0-.4,0-.5.4-.7.8-.8,1.2,0,0,0,0-.4,0-.5.4-.7.8-.8,1.2,0,0,0,0-.4,0-.5.4-.7.8-.8,1.2,0,0,0,0-.4,0-.5.4-.7.8-.8,1.2,0,0,0,0-.4,0-.5.4-.7.8-.8,1.2,0,0,0,0-.4,0-.5.4-.7.8-.8,1.2,0,0,0,0-.3,0-.5.4-.7.8-.8,1.2,0,0,0,0-.3,0-.5.4-.7.8-.8,1.2,0,0,0,0-.3,0-.5.4-.7.8-.9,1.2,0,0,0,0-.3,0-.5.4-.7.8-.9,1.2,0,0,0,0-.3,0-.5.4-.7.8-.9,1.2,0,0,0,0-.3,0-.5.4-.7.8-.9,1.2,0,0,0,0-.3,0-.5.4-.7.8-.9,1.2,0,0,0,0-.3,0-.5.4-.7.8-.9,1.2,0,0,0,0-.3,0-.5.6-.7,1.1-.9,1.5,0,0,0,.1-.3.4-.5.7-.6,1.2-.8,1.6,0,0,0,0-.4,0-.5.4-.7.8-.8,1.2,0,0,0,0-.4,0-.5.4-.7.8-.8,1.2,0,0,0,0-.4,0-.5.4-.7.8-.8,1.2,0,0,0,0-.4,0-.5.4-.7.8-.8,1.2,0,0,0,0-.4,0-.5.4-.7.8-.8,1.2,0,0,0,0-.4,0-.5.4-.7.8-.8,1.2,0,0,0,0-.3,0-.5.4-.7.8-.8,1.2,0,0,0,0-.3,0-.5.4-.7.8-.9,1.2,0,0,0,0-.3,0-.5.4-.7.8-.9,1.2,0,0,0,0-.3,0-.5.4-.7.8-.9,1.2,0,0,0,0-.3,0-.5.4-.7.8-.9,1.2,0,0,0,0-.3,0-.5.4-.7.8-.9,1.2,0,0,0,0-.3,0-.5.4-.7.8-.9,1.2,0,0,0,0-.3,0-.5.4-.7.8-.9,1.2,0,0,0,0-.3,0-.5.4-.7.8-.9,1.2,0,0,0,0-.3,0-.5.4-.7.8-.9,1.2,0,0,0,0-.3,0-.5.4-.7.8-.9,1.2,0,0,0,0-.3,0-.5.5-.7.8-.9,1.2,0,0,0,0-.3,0-.5.9-.7,1.6-.8,2.3,0,0,0,0-.4,0-.5.4-.7.8-.8,1.2,0,0,0,0-.4,0-.5.4-.7.8-.8,1.2,0,0,0,0-.4,0-.5.4-.7.8-.8,1.2,0,0,0,0-.4,0-.5.4-.7.8-.8,1.2,0,0,0,0-.4,0-.5.4-.7.8-.8,1.2,0,0,0,0-.4,0-.5.4-.7.8-.8,1.2,0,0,0,0-.3,0-.5.4-.7.8-.8,1.2,0,0,0,0-.3,0-.5.4-.7.8-.9,1.2,0,0,0,0-.3,0-.5.4-.7.8-.9,1.2,0,0,0,0-.3,0-.5.4-.7.8-.9,1.2,0,0,0,0-.3,0-.5.4-.7.8-.9,1.2,0,0,0,0-.3,0-.5.4-.7.8-.9,1.2,0,0,0,0-.3,0-.5.4-.7.8-.9,1.2,0,0,0,0-.3,0-.5.4-.7.8-.9,1.2,0,0,0,0-.3,0-.5.4-.7.8-.9,1.2,0,0,0,0-.3,0-.5.4-.7.8-.9,1.2,0,0,0,0-.3,0-.5.4-.7.8-.9,1.2,0,0,0,0-.3,0-.5.4-.7.8-.9,1.2,0,0,0,0-.3,0-.5.4-.7.8-.9,1.2,0,0,0,0-.3,0-.5.4-.7.8-.9,1.2,0,0,0,0-.3,0-.5.4-.7.8-.9,1.2,0,0,0,0-.3,0-.5.5-.7.8-.9,1.2,0,0,0,0-.3,0-.5.5-.7.8-.9,1.2,0,0,0,0-.3,0-.5.5-.7.8-.9,1.2,0,0,0,0-.3,0-.5.5-.7.8-.9,1.2,0,0,0,0-.3,0-.5.9-.7,1.6-.8,2.3,0,0,0,0-.4,0-.5.4-.7.8-.8,1.2,0,0,0,0-.4,0-.5.4-.7.8-.8,1.2,0,0,0,0-.4,0-.5.4-.7.8-.8,1.2,0,0,0,0-.4,0-.5.4-.7.8-.8,1.2,0,0,0,0-.4,0-.5.4-.7.8-.8,1.2,0,0,0,0-.4,0-.5.4-.7.8-.8,1.2,0,0,0,0-.4,0-.5.4-.7.8-.8,1.2,0,0,0,0-.4,0-.5.4-.7.8-.8,1.2,0,0,0,0-.4,0-.5.4-.7.8-.8,1.2,0,0,0,0-.4,0-.5.4-.7.8-.8,1.2,0,0,0,0-.4,0-.5.4-.7.8-.8,1.2,0,0,0,0-.3,0-.5.4-.7.8-.8,1.2,0,0,0,0-.3,0-.5.4-.7.8-.8,1.2,0,0,0,0-.3,0-.5.4-.7.8-.9,1.2,0,0,0,0-.3,0-.5.4-.7.8-.9,1.2,0,0,0,0-.3,0-.5.4-.7.8-.9,1.2,0,0,0,0-.3,0-.5.4-.7.8-.9,1.2,0,0,0,0-.3,0-.5.4-.7.8-.9,1.2,0,0,0,0-.3,0-.5.4-.7.8-.9,1.2,0,0,0,0-.3,0-.5.4-.7.8-.9,1.2,0,0,0,0-.3,0-.5.4-.7.8-.9,1.2,0,0,0,0-.3,0-.5.4-.7.8-.9,1.2,0,0,0,0-.3,0-.5.4-.7.8-.9,1.2,0,0,0,0-.3,0-.5.4-.7.8-.9,1.2,0,0,0,0-.3,0-.5.4-.7.8-.9,1.2,0,0,0,0-.3,0-.5.4-.7.8-.9,1.2,0,0,0,0-.3,0-.5.4-.7.8-.9,1.2,0,0,0,0-.3,0-.5.4-.7.8-.9,1.2,0,0,0,0-.3,0-.5.4-.7.8-.9,1.2,0,0,0,0-.3,0-.5.4-.7.8-.9,1.2,0,0,0,0-.3,0-.5.4-.7.8-.9,1.2,0,0,0,0-.3,0-.5.4-.7.8-.9,1.2,0,0,0,0-.3,0-.5.4-.7.8-.9,1.2,0,0,0,0-.3,0-.5.4-.7.8-.9,1.2,0,0,0,0-.3,0-.5.4-.7.8-.9,1.2,0,0,0,0-.3,0-.5.4-.7.8-.9,1.2,0,0,0,0-.3,0-.5.4-.7.8-.9,1.2,0,0,0,0-.3,0-.5.4-.7.8-.9,1.2,0,0,0,0-.3,0-.5.4-.7.8-.9,1.2,0,0,0,0-.3,0-.5.4-.7.8-.9,1.2,0,0,0,0-.3,0-.5.4-.7.8-.9,1.2,0,0,0,0-.3,0-.5.4-.7.8-.9,1.2,0,0,0,0-.3,0-.5.4-.7.8-.9,1.2,0,0,0,0-.3,0-.5.4-.7.8-.9,1.2,0,0,0,0-.3,0-.5.4-.7.8-.9,1.2,0,0,0,0-.3,0-.5.4-.7.8-.9,1.2,0,0,0,0-.3,0-.5.4-.7.8-.9,1.2,0,0,0,0-.3,0-.5.4-.7.8-.9,1.2,0,0,0,0-.3,0-.5.4-.7.8-.9,1.2,0,0,0,0-.3,0-.5.4-.7.8-.9,1.2,0,0,0,0-.3,0-.5.4-.7.8-.9,1.2,0,0,0,0-.3,0-.5.4-.7.8-.9,1.2,0,0,0,0-.3,0-.5.4-.7.8-.9,1.2,0,0,0,0-.3,0-.5.4-.7.8-.9,1.2,0,0,0,0-.3,0-.5.4-.7.8-.9,1.2,0,0,0,0-.3,0-.5.4-.7.8-.9,1.2,0,0,0,0-.3,0-.5.4-.7.8-.9,1.2,0,0,0,0-.3,0-.5.4-.7.8-.9,1.2,0,0,0,0-.3,0-.5.4-.7.8-.9,1.2,0,0,0,0-.3,0-.5.4-.7.8-.9,1.2,0,0,0,0-.3,0-.5.4-.7.8-.9,1.2,0,0,0,0-.3,0-.5.4-.7.8-.9,1.2,0,0,0,0-.3,0-.5.4-.7.8-.9,1.2,0,0,0,0-.3,0-.5.4-.7.8-.9,1.2,0,0,0,0-.3,0-.5.4-.7.8-.9,1.2,0,0,0,0-.3,0-.5.4-.7.8-.9,1.2,0,0,0,0-.3,0-.5.4-.7.8-.9,1.2,0,0,0,0-.3,0-.5.4-.7.8-.9,1.2,0,0,0,0-.3,0-.5.4-.7.8-.9,1.2,0,0,0,0-.3,0-.5.4-.7.8-.9,1.2,0,0,0,0-.3,0-.5.4-.7.8-.9,1.2,0,0,0,0-.3,0-.5.4-.7.8-.9,1.2,0,0,0,0-.3,0-.5.4-.7.8-.9,1.2,0,0,0,0-.3,0-.5.4-.7.8-.9,1.2,0,0,0,0-.3,0-.5.4-.7.8-.9,1.2,0,0,0,0-.3,0-.5.4-.7.8-.9,1.2,0,0,0,0-.3,0-.5.4-.7.8-.9,1.2,0,0,0,0-.3,0-.5.4-.7.8-.9,1.2,0,0,0,0-.3,0-.5.4-.7.8-.9,1.2,0,0,0,0-.3,0-.5.4-.7.8-.9,1.2,0,0,0,0-.3,0-.5.4-.7.8-.9,1.2,0,0,0,0-.3,0-.5.4-.7.8-.9,1.2,0,0,0,0-.3,0-.5.4-.7.8-.9,1.2,0,0,0,0-.3,0-.5.4-.7.8-.9,1.2,0,0,0,0-.3,0-.5.4-.7.8-.9,1.2,0,0,0,0-.3,0-.5.4-.7.8-.9,1.2,0,0,0,0-.3,0-.5.4-.7.8-.9,1.2,0,0,0,0-.3,0-.5.4-.7.8-.9,1.2,0,0,0,0-.3,0-.5.4-.7.8-.9,1.2,0,0,0,0-.3,0-.5.4-.7.8-.9,1.2,0,0,0,0-.3,0-.5.4-.7.8-.9,1.2,0,0,0,0-.3,0-.5.4-.7.8-.9,1.2,0,0,0,0-.3,0-.5.4-.7.8-.9,1.2,0,0,0,0-.3,0-.5.4-.7.8-.9,1.2,0,0,0,0-.3,0-.5.4-.7.8-.9,1.2,0,0,0,0-.3,0-.5.4-.7.8-.9,1.2,0,0,0,0-.3,0-.5.4-.7.8-.9,1.2,0,0,0,0-.3,0-.5.4-.7.8-.9,1.2,0,0,0,0-.3,0-.5.4-.7.8-.9,1.2,0,0,0,0-.3,0-.5.4-.7.8-.9,1.2,0,0,0,0-.3,0-.5.4-.7.8-.9,1.2,0,0,0,0-.3,0-.5.4-.7.8-.9,1.2,0,0,0,0-.3,0-.5.4-.7.8-.8,1.2,0,0,0,0-.3,0-.5.4-.7.8-.8,1.2,0,0,0,0-.3,0-.5.4-.7.8-.8,1.2,0,0,0,0-.3,0-.5.4-.7.8-.8,1.2,0,0,0,0-.4,0-.5.4-.7.8-.8,1.2,0,0,0,0-.4,0-.5.4-.7.8-.8,1.2,0,0,0,0-.4,0-.5.4-.7.8-.8,1.2,0,0,0,0-.4,0-.5.4-.7.8-.8,1.2,0,0,0,0-.4,0-.5.4-.7.8-.8,1.2,0,0,0,0-.4,0-.5.4-.7.8-.8,1.2,0,0,0,0-.4,0-.7.4-1,.7-1.4,1.1,0,0-.1.1-.6.2-.7.9-1,1.6-1.3,2.3,0,0,0,0-.4,0-.5.4-.7.8-.8,1.2,0,0,0,0-.4-.1-.9.4-1.5.9-2,1.4,0,0,0,0-.3,0-.5.5-.7.8-.9,1.2,0,0,0,0-.3,0-.9.9-1.5,1.6-2.1,2.4,0,0,0,0-.3,0-.5.4-.7.8-.9,1.2,0,0,0,0-.3,0-.5.4-.7.8-.9,1.2,0,0,0,0-.3,0-.5.4-.7.8-.9,1.2,0,0,0,0-.3,0-.5.4-.7.8-.9,1.2,0,0,0,0-.3,0-.5.4-.7.8-.9,1.2,0,0,0,0-.3,0-.5.4-.7.8-.9,1.2,0,0,0,0-.3,0-.5.4-.7.8-.9,1.2,0,0,0,0-.3,0-.5.4-.7.8-.9,1.2,0,0,0,0-.3,0-.5.4-.7.8-.9,1.2,0,0,0,0-.3,0-.5.4-.7.8-.9,1.2,0,0,0,0-.3,0-.5.4-.7.8-.9,1.2,0,0,0,0-.3,0-.5.4-.7.8-.9,1.2,0,0,0,0-.3,0-.5.4-.7.8-.9,1.2,0,0,0,0-.3,0-.5.4-.7.8-.9,1.2,0,0,0,0-.3,0-.5.4-.7.8-.9,1.2,0,0,0,0-.3,0-.5.4-.7.8-.9,1.2,0,0,0,0-.3,0-.5.4-.7.8-.9,1.2,0,0,0,0-.3,0-.5.4-.7.8-.9,1.2,0,0,0,0-.3,0-.5.4-.7.8-.9,1.2,0,0,0,0-.3,0-.5.4-.7.8-.8,1.2,0,0,0,0-.3,0-.5.4-.7.8-.8,1.2,0,0,0,0-.4,0-.5.4-.7.8-.8,1.2,0,0,0,0-.4,0-.5.4-.7.8-.8,1.2,0,0,0,0-.4,0-.5.4-.7.8-.8,1.2,0,0,0,0-.4,0-.5.4-.7.8-.8,1.2,0,0,0,0-.4,0-.5.4-.7.8-.8,1.2,0,0,0,0-.4,0-.5.4-.7.8-.8,1.2,0,0,0,0-.4,0-.5.4-.7.8-.8,1.2,0,0,0,0-.4-.1-.9.4-1.5.9-2,1.4,0,0,0,0-.3,0-.5.5-.7.8-.9,1.2,0,0,0,0-.3,0-.5.5-.7.8-.9,1.2,0,0,0,0-.3,0-.5.4-.7.8-.9,1.2,0,0,0,0-.3,0-.5.4-.7.8-.9,1.2,0,0,0,0-.3,0-.5.4-.7.8-.9,1.2,0,0,0,0-.3,0-.5.4-.7.8-.9,1.2,0,0,0,0-.3,0-.5.4-.7.8-.9,1.2,0,0,0,0-.3,0-.5.4-.7.8-.9,1.2,0,0,0,0-.3,0-.5.4-.7.8-.9,1.2,0,0,0,0-.3,0-.5.4-.7.8-.9,1.2,0,0,0,0-.3,0-.5.4-.7.8-.9,1.2,0,0,0,0-.3,0-.5.4-.7.8-.9,1.2,0,0,0,0-.3,0-.5.4-.7.8-.9,1.2,0,0,0,0-.3,0-.5.4-.7.8-.9,1.2,0,0,0,0-.3,0-.5.4-.7.8-.9,1.2,0,0,0,0-.3,0-.5.4-.7.8-.8,1.2,0,0,0,0-.3,0-.5.4-.7.8-.8,1.2,0,0,0,0-.4,0-.5.4-.7.8-.8,1.2,0,0,0,0-.4,0-.7.4-1,.7-1.3,1,0,0-.1.1-.6.2-.8.5-1,.8-1.3,1.2,0,0,0,0-.3,0-.5.5-.7.9-.9,1.3,0,.4-.1.6-1,1-.8.5-1.1.9-1.3,1.3,0,0,0,0-.3,0-.5.4-.7.8-.9,1.2,0,0,0,0-.3,0-.5.4-.7.8-.9,1.2,0,0,0,0-.3,0-.5.4-.7.8-.9,1.2,0,0,0,0-.3,0-.5.4-.7.8-.9,1.2,0,0,0,0-.3,0-.5.4-.7.8-.9,1.2,0,0,0,0-.3,0-.5.4-.7.8-.9,1.2,0,0,0,0-.3,0-.5.4-.7.8-.9,1.2,0,0,0,0-.3,0-.5.4-.7.8-.9,1.2,0,0,0,0-.3,0-.5.4-.7.8-.9,1.2,0,0,0,0-.3,0-.5.4-.7.8-.8,1.2,0,0,0,0-.3,0-.5.4-.7.8-.8,1.2,0,0,0,0-.3,0-.5.4-.7.8-.8,1.2,0,0,0,0-.4,0-.5.4-.7.8-.8,1.2,0,0,0,0-.4,0-.5.4-.7.8-.8,1.2,0,0,0,0-.4,0-.5.4-.7.8-.8,1.2,0,0,0,0-.4,0-.5.4-.7.8-.8,1.2,0,0,0,0-.4,0-.7.4-1,.7-1.4,1.1,0,0,0,.1-.6.2-.8.4-1,.8-1.3,1.2,0,0,0,0-.3,0-.5.4-.7.8-.9,1.2,0,0,0,0-.3,0-.5.4-.7.8-.9,1.2,0,0,0,0-.3,0-.5.4-.7.8-.9,1.2,0,0,0,0-.3,0-.5.4-.7.8-.9,1.2,0,0,0,0-.3,0-.5.4-.7.8-.9,1.2,0,0,0,0-.3,0-.5.4-.7.8-.9,1.2,0,0,0,0-.3,0-.5.4-.7.8-.9,1.2,0,0,0,0-.3,0-.5.4-.7.8-.9,1.2,0,0,0,0-.3,0-.5.4-.7.8-.8,1.2,0,0,0,0-.4,0-.5.4-.7.8-.8,1.2,0,0,0,0-.4-.1-.9.5-1.5,1-2,1.5,0,.4-.1.7-1,1-.8.5-1.1.9-1.3,1.3,0,0,0,0-.3,0-.5.4-.7.8-.9,1.2,0,0,0,0-.3,0-.5.4-.7.8-.9,1.2,0,0,0,0-.3,0-.5.4-.7.8-.9,1.2,0,0,0,0-.3,0-.5.4-.7.8-.9,1.2,0,0,0,0-.3,0-.5.4-.7.8-.9,1.2,0,0,0,0-.3,0-.5.4-.7.8-.9,1.2,0,0,0,0-.3,0-.5.4-.7.8-.9,1.2,0,0,0,0-.3,0-.5.4-.7.8-.8,1.2,0,0,0,0-.4,0-.5.4-.7.8-.8,1.2,0,0,0,0-.4,0-.5.4-.7.8-.8,1.2,0,0,0,0-.4,0-.5.4-.7.8-.8,1.2,0,0,0,0-.4,0-.5.4-.7.8-.8,1.2,0,0,0,0-.4-.1-.9.4-1.5.9-2,1.4,0,0,0,0-.3,0-.5.4-.7.8-.9,1.2,0,0,0,0-.3,0-.5.4-.7.8-.9,1.2,0,0,0,0-.3,0-.5.4-.7.8-.9,1.2,0,0,0,0-.3,0-.5.4-.7.8-.9,1.2,0,0,0,0-.3,0-.5.4-.7.8-.9,1.2,0,0,0,0-.3,0-.5.4-.7.8-.9,1.2,0,0,0,0-.3,0-.5.4-.7.8-.8,1.2,0,0,0,0-.4,0-.5.4-.7.8-.8,1.2,0,0,0,0-.4-.1-.9.4-1.5.9-2,1.4,0,0,0,0-.3,0-.5.5-.7.8-.9,1.2,0,0,0,0-.3,0-.5.5-.7.8-.9,1.2,0,0,0,0-.3,0-.5.4-.7.8-.9,1.2,0,0,0,0-.3,0-.5.4-.7.8-.9,1.2,0,0,0,0-.3,0-.5.4-.7.8-.9,1.2,0,0,0,0-.3,0-.5.4-.7.8-.9,1.2,0,0,0,0-.3,0-.5.4-.7.8-.9,1.2,0,0,0,0-.3,0-.5.4-.7.8-.9,1.2,0,0,0,0-.3,0-.5.4-.7.8-.8,1.2,0,0,0,0-.4,0-.5.4-.7.8-.8,1.2,0,0,0,0-.4,0-.5.4-.7.8-.8,1.2,0,0,0,0-.4,0-.7.4-1,.7-1.4,1.1,0,0-.1.1-.6.2-.7.5-1,.8-1.3,1.2,0,0,0,0-.3,0-.5.5-.7.8-.9,1.2,0,0,0,0-.3,0-.5.4-.7.8-.9,1.2,0,0,0,0-.3,0-.5.4-.7.8-.9,1.2,0,0,0,0-.3-.1-.5,0-.7,0-1.2.2-.5.9-.7,1.6-.9,2.3,0,0,0,0-.3,0-.5.4-.7.8-.9,1.2,0,0,0,0-.3,0-.5.4-.7.8-.9,1.2,0,0,0,0-.3,0-.5.4-.7.8-.9,1.2,0,0,0,0-.3,0-.5.4-.7.8-.8,1.2,0,0,0,0-.3,0-.5.4-.7.8-.8,1.2,0,0,0,0-.4,0-.5.4-.7.8-.8,1.2,0,0,0,0-.4,0-.5.4-.7.8-.8,1.2,0,0,0,0-.4,0-.7.4-1,.7-1.4,1.1,0,0-.1.1-.6.2-.8.4-1,.8-1.3,1.2,0,0,0,0-.3,0-.5.4-.7.8-.9,1.2,0,0,0,0-.3,0-.5.4-.7.8-.9,1.2,0,0,0,0-.3,0-.5.4-.7.8-.9,1.2,0,0,0,0-.3,0-.5.4-.7.8-.9,1.2,0,0,0,0-.3,0-.5.4-.7.8-.9,1.2,0,0,0,0-.3,0-.5.4-.7.8-.8,1.2,0,0,0,0-.4-.1-.9.4-1.5.9-2.1,1.4,0,0,0-.1-.3,0-.5.5-.7.8-.9,1.2,0,0,0,0-.3,0-.5.5-.7.8-.9,1.2,0,0,0,0-.3,0-.5.5-.7.8-.9,1.2,0,0,0,0-.3,0-.5.4-.7.8-.9,1.2,0,0,0,0-.3,0-.5.4-.7.8-.9,1.2,0,0,0,0-.3,0-.5.4-.7.8-.9,1.2,0,0,0,0-.3,0-.5.4-.7.8-.9,1.2,0,0,0,0-.3,0-.5.4-.7.8-.9,1.2,0,0,0,0-.3,0-.5.4-.7.8-.8,1.2,0,0,0,0-.4,0-.5.4-.7.8-.8,1.2,0,0,0,0-.4,0-.7.4-1,.7-1.4,1.1,0,0,0,.1-.5.2-.8.4-1,.8-1.3,1.2,0,0,0,0-.3,0-.5.4-.7.8-.9,1.2,0,0,0,0-.3,0-.5.4-.7.8-.9,1.2,0,0,0,0-.3,0-.5.4-.7.8-.9,1.2,0,0,0,0-.3,0-.5.4-.7.8-.9,1.2,0,0,0,0-.3,0-.5.4-.7.8-.8,1.2,0,0,0,0-.4,0-.5.4-.7.8-.8,1.2,0,0,0,0-.4,0-.7.4-1,.7-1.4,1.1,0,0,0,.1-.5.2-.8.4-1,.8-1.3,1.2,0,0,0,0-.3,0-.5.4-.7.8-.9,1.2,0,0,0,0-.3,0-.5.4-.7.8-.9,1.2,0,0,0,0-.3,0-.5.4-.7.8-.9,1.2,0,0,0,0-.4-.1-.9.5-1.5,1-2,1.5,0,.4-.2.7-1.2,1-1.1.8-1.6,1.5-2.1,2.1Z"/>
      </g>
    </g>
  </g>
</svg>